<?xml version="1.0" encoding="UTF-8"?>
<svg id="Layer_1" data-name="Layer 1" xmlns="http://www.w3.org/2000/svg" viewBox="0 0 725.5 653">
  <path d="M293,17c35.71,0,70.35,6.99,102.95,20.79,31.5,13.32,59.78,32.39,84.07,56.68,24.29,24.29,43.36,52.58,56.68,84.07,13.79,32.61,20.79,67.25,20.79,102.96s-6.99,70.35-20.79,102.95c-13.32,31.5-32.39,59.78-56.68,84.07-24.29,24.29-52.58,43.36-84.07,56.68-32.61,13.79-67.25,20.79-102.95,20.79s-70.35-6.99-102.96-20.79c-31.5-13.32-59.78-32.39-84.07-56.68-24.29-24.29-43.36-52.58-56.68-84.07-13.79-32.61-20.79-67.25-20.79-102.95s6.99-70.35,20.79-102.96c13.32-31.5,32.39-59.78,56.68-84.07s52.58-43.36,84.07-56.68c32.61-13.79,67.25-20.79,102.96-20.79m0-1C146.37,16,27.5,134.87,27.5,281.5s118.87,265.5,265.5,265.5,265.5-118.87,265.5-265.5S439.63,16,293,16h0Z"/>
  <path d="M336,81c35.71,0,70.35,6.99,102.96,20.79,31.5,13.32,59.78,32.39,84.07,56.68s43.36,52.58,56.68,84.07c13.79,32.61,20.79,67.25,20.79,102.95s-6.99,70.35-20.79,102.95c-13.32,31.5-32.39,59.78-56.68,84.07-24.29,24.29-52.58,43.36-84.07,56.68-32.61,13.79-67.25,20.79-102.96,20.79s-70.35-6.99-102.95-20.79c-31.5-13.32-59.78-32.39-84.07-56.68-24.29-24.29-43.36-52.58-56.68-84.07-13.79-32.61-20.79-67.25-20.79-102.95s6.99-70.35,20.79-102.95c13.32-31.5,32.39-59.78,56.68-84.07s52.58-43.36,84.07-56.68c32.61-13.79,67.25-20.79,102.95-20.79m0-1c-146.63,0-265.5,118.87-265.5,265.5s118.87,265.5,265.5,265.5,265.5-118.87,265.5-265.5S482.63,80,336,80h0Z"/>
  <path d="M345,91c35.71,0,70.35,6.99,102.96,20.79,31.5,13.32,59.78,32.39,84.07,56.68s43.36,52.58,56.68,84.07c13.79,32.61,20.79,67.25,20.79,102.95s-6.99,70.35-20.79,102.95c-13.32,31.5-32.39,59.78-56.68,84.07-24.29,24.29-52.58,43.36-84.07,56.68-32.61,13.79-67.25,20.79-102.96,20.79s-70.35-6.99-102.95-20.79c-31.5-13.32-59.78-32.39-84.07-56.68-24.29-24.29-43.36-52.58-56.68-84.07-13.79-32.61-20.79-67.25-20.79-102.95s6.99-70.35,20.79-102.95c13.32-31.5,32.39-59.78,56.68-84.07s52.58-43.36,84.07-56.68c32.61-13.79,67.25-20.79,102.95-20.79m0-1c-146.63,0-265.5,118.87-265.5,265.5s118.87,265.5,265.5,265.5,265.5-118.87,265.5-265.5S491.63,90,345,90h0Z"/>
  <g>
    <path d="M251.37,217.26l-49.67,110.37h20.97l10.97-25.54h55.2l10.93,25.54h21.6l-49.82-110.37h-20.18Zm-10.82,68.74l20.74-48.3,20.67,48.3h-41.41Z"/>
    <path d="M401.94,247.69c-6.41-3.57-13.72-5.36-21.92-5.36-6.94,0-13.19,1.55-18.76,4.65-3.09,1.72-5.82,3.97-8.2,6.69v-43.03h-19.55v116.99h18.76v-10.76c2.45,2.97,5.33,5.39,8.67,7.21,5.68,3.1,12.03,4.65,19.08,4.65,8.2,0,15.5-1.79,21.92-5.36,6.41-3.57,11.48-8.59,15.21-15.06,3.73-6.46,5.6-14.06,5.6-22.78s-1.87-16.19-5.6-22.7c-3.73-6.52-8.8-11.56-15.21-15.14Zm-2.52,51.79c-2.21,4.05-5.18,7.15-8.91,9.3-3.73,2.16-8.02,3.23-12.85,3.23s-8.83-1.08-12.61-3.23c-3.78-2.15-6.78-5.25-8.99-9.3-2.21-4.04-3.31-8.7-3.31-13.95s1.1-10.01,3.31-13.95c2.21-3.94,5.2-6.99,8.99-9.14,3.78-2.15,7.99-3.23,12.61-3.23s9.12,1.08,12.85,3.23c3.73,2.16,6.7,5.2,8.91,9.14,2.21,3.94,3.31,8.59,3.31,13.95s-1.1,9.91-3.31,13.95Z"/>
    <path d="M502.61,247.92c-6.78-3.73-14.53-5.6-23.26-5.6s-16.29,1.87-23.02,5.6c-6.73,3.73-12.04,8.8-15.92,15.21-3.89,6.41-5.83,13.87-5.83,22.39s1.94,15.71,5.83,22.23c3.89,6.52,9.22,11.64,16,15.37,6.78,3.73,14.43,5.6,22.94,5.6s16.34-1.87,23.18-5.6c6.83-3.73,12.17-8.83,16-15.29,3.84-6.46,5.75-13.9,5.75-22.31s-1.92-15.98-5.75-22.39c-3.84-6.41-9.14-11.48-15.92-15.21Zm-1.42,51.56c-2.16,4.05-5.12,7.15-8.91,9.3-3.78,2.16-8.1,3.23-12.93,3.23s-8.83-1.08-12.61-3.23c-3.78-2.15-6.78-5.25-8.99-9.3-2.21-4.04-3.31-8.7-3.31-13.95s1.1-10.01,3.31-13.95c2.21-3.94,5.2-6.99,8.99-9.14,3.78-2.15,8.04-3.23,12.77-3.23s8.99,1.08,12.77,3.23c3.78,2.16,6.75,5.2,8.91,9.14,2.15,3.94,3.23,8.59,3.23,13.95s-1.08,9.91-3.23,13.95Z"/>
    <path d="M605.01,286c0,5.57-.95,10.25-2.84,14.03-1.89,3.78-4.57,6.62-8.04,8.51-3.47,1.89-7.52,2.84-12.14,2.84-6.2,0-11.04-1.87-14.51-5.6-3.47-3.73-5.2-9.33-5.2-16.79v-45.57h-19.87v48.09c0,8.41,1.55,15.37,4.65,20.89,3.1,5.52,7.38,9.62,12.85,12.3,5.46,2.68,11.77,4.02,18.92,4.02,6.52,0,12.51-1.47,17.97-4.41,3.63-1.96,6.67-4.46,9.14-7.48v10.8h18.76v-84.19h-19.71v42.57Z"/>
    <path d="M695.51,309.02c-2.84,2.31-6.41,3.47-10.72,3.47-3.78,0-6.73-1.1-8.83-3.31-2.1-2.21-3.15-5.31-3.15-9.3v-40.68h22.7v-15.77h-22.7v-18.6h-19.55v18.6h-13.88v15.77h13.88v41.31c0,9.25,2.52,16.27,7.57,21.05,5.05,4.78,12.19,7.17,21.44,7.17,3.47,0,6.88-.47,10.25-1.42,3.36-.95,6.25-2.37,8.67-4.26l-5.68-14.03Z"/>
    <path d="M292.83,467.95c0,11.35-2.42,19.61-7.25,24.75-4.84,5.15-11.72,7.73-20.65,7.73s-15.85-2.57-20.73-7.73c-4.89-5.15-7.33-13.4-7.33-24.75v-61.49h-20.5v62.12c0,16.19,4.28,28.54,12.85,37.05,8.57,8.51,20.36,12.77,35.4,12.77s26.99-4.26,35.55-12.77c8.57-8.51,12.85-20.86,12.85-37.05v-62.12h-20.18v61.49Z"/>
    <path d="M393.82,473.54c-3.1-1.63-6.49-2.89-10.17-3.78-3.68-.89-7.39-1.63-11.12-2.21-3.73-.58-7.12-1.21-10.17-1.89-3.05-.68-5.52-1.66-7.41-2.92-1.89-1.26-2.84-3.15-2.84-5.68,0-2.73,1.47-4.97,4.41-6.7,2.94-1.73,7.36-2.6,13.24-2.6,3.99,0,8.04,.45,12.14,1.34,4.1,.89,8.09,2.5,11.98,4.81l7.73-14.98c-3.89-2.31-8.75-4.12-14.58-5.44-5.83-1.31-11.54-1.97-17.11-1.97-7.57,0-14.11,1.1-19.63,3.31s-9.8,5.28-12.85,9.22c-3.05,3.94-4.57,8.54-4.57,13.8,0,4.94,.95,8.88,2.84,11.82,1.89,2.94,4.36,5.28,7.41,7.02,3.05,1.73,6.44,3.05,10.17,3.94,3.73,.89,7.46,1.6,11.19,2.13,3.73,.53,7.12,1.1,10.17,1.73,3.05,.63,5.52,1.55,7.41,2.76,1.89,1.21,2.84,2.97,2.84,5.28,0,2.84-1.39,5.07-4.18,6.7-2.79,1.63-7.23,2.44-13.32,2.44-5.36,0-10.67-.76-15.92-2.29-5.26-1.52-9.78-3.49-13.56-5.91l-7.57,14.98c3.89,2.63,9.04,4.86,15.45,6.7,6.41,1.84,13.19,2.76,20.34,2.76,7.88,0,14.64-1.08,20.26-3.23,5.62-2.15,9.98-5.15,13.09-8.99,3.1-3.84,4.65-8.44,4.65-13.8,0-4.73-.95-8.57-2.84-11.51-1.89-2.94-4.39-5.23-7.49-6.86Z"/>
  </g>
</svg>