<?xml version="1.0" encoding="UTF-8"?>
<svg id="Layer_1" data-name="Layer 1" xmlns="http://www.w3.org/2000/svg" viewBox="0 0 676.5 311">
  <defs>
    <style>
      .cls-1 {
        fill: none;
        stroke: #000;
        stroke-miterlimit: 10;
      }
    </style>
  </defs>
  <g>
    <path d="M123.02,95.3c1.74-1.71,3.78-3.03,6.14-3.96,2.36-.93,4.96-1.4,7.81-1.4s5.41,.53,7.85,1.59c2.43,1.06,4.66,2.66,6.68,4.78l6.53-6.14c-2.54-3-5.65-5.27-9.33-6.8-3.68-1.53-7.74-2.29-12.2-2.29-4.2,0-8.06,.69-11.58,2.06-3.52,1.37-6.61,3.33-9.25,5.87-2.64,2.54-4.69,5.49-6.14,8.86-1.45,3.37-2.18,7.1-2.18,11.19s.72,7.82,2.18,11.19c1.45,3.37,3.48,6.32,6.1,8.86,2.62,2.54,5.68,4.49,9.21,5.87,3.52,1.37,7.38,2.06,11.58,2.06,4.51,0,8.6-.78,12.28-2.33,3.68-1.55,6.79-3.83,9.33-6.84l-6.53-6.14c-2.02,2.18-4.25,3.8-6.68,4.86-2.44,1.06-5.05,1.59-7.85,1.59s-5.45-.47-7.81-1.4c-2.36-.93-4.4-2.25-6.14-3.96-1.74-1.71-3.1-3.73-4.08-6.06-.98-2.33-1.48-4.9-1.48-7.69s.49-5.36,1.48-7.69c.98-2.33,2.34-4.35,4.08-6.06Z"/>
    <path d="M194.27,96.97c-3.34-1.84-7.16-2.76-11.46-2.76s-8.03,.92-11.35,2.76c-3.32,1.84-5.93,4.34-7.85,7.5-1.92,3.16-2.88,6.84-2.88,11.03s.96,7.75,2.88,10.96c1.92,3.21,4.55,5.74,7.89,7.58,3.34,1.84,7.11,2.76,11.31,2.76s8.05-.92,11.42-2.76c3.37-1.84,6-4.35,7.89-7.54,1.89-3.19,2.84-6.85,2.84-11s-.95-7.87-2.84-11.03c-1.89-3.16-4.51-5.66-7.85-7.5Zm-.7,25.41c-1.06,1.99-2.53,3.52-4.39,4.58-1.86,1.06-3.99,1.59-6.37,1.59s-4.35-.53-6.22-1.59c-1.87-1.06-3.34-2.59-4.43-4.58-1.09-1.99-1.63-4.29-1.63-6.88s.54-4.93,1.63-6.88c1.09-1.94,2.56-3.44,4.43-4.51,1.86-1.06,3.96-1.59,6.29-1.59s4.43,.53,6.29,1.59c1.87,1.06,3.33,2.56,4.39,4.51,1.06,1.94,1.59,4.23,1.59,6.88s-.53,4.88-1.59,6.88Z"/>
    <path d="M223.99,115.27c0-2.8,.48-5.12,1.44-6.95,.96-1.84,2.32-3.22,4.08-4.16,1.76-.93,3.78-1.4,6.06-1.4,3.16,0,5.59,.91,7.3,2.72,1.71,1.81,2.56,4.56,2.56,8.24v22.53h9.71v-23.78c0-4.2-.76-7.64-2.29-10.34-1.53-2.69-3.57-4.69-6.14-5.98-2.56-1.29-5.53-1.94-8.9-1.94-3.63,0-6.83,.73-9.6,2.18-1.85,.97-3.39,2.21-4.62,3.7v-5.34h-9.25v41.5h9.64v-20.98Z"/>
    <path d="M298.67,136.25h9.71v-23.78c0-4.2-.76-7.64-2.29-10.34-1.53-2.69-3.57-4.69-6.14-5.98-2.56-1.29-5.53-1.94-8.9-1.94-3.63,0-6.83,.73-9.6,2.18-1.85,.97-3.39,2.21-4.62,3.7v-5.34h-9.25v41.5h9.64v-20.98c0-2.8,.48-5.12,1.44-6.95,.96-1.84,2.32-3.22,4.08-4.16,1.76-.93,3.78-1.4,6.06-1.4,3.16,0,5.59,.91,7.3,2.72,1.71,1.81,2.56,4.56,2.56,8.24v22.53Z"/>
    <path d="M328.16,134.03c3.44,1.84,7.47,2.76,12.08,2.76,3.63,0,6.85-.57,9.67-1.71,2.82-1.14,5.19-2.8,7.11-4.97l-5.28-6.06c-1.45,1.5-3.11,2.64-4.97,3.42-1.86,.78-3.96,1.17-6.29,1.17-2.75,0-5.15-.53-7.23-1.59-2.07-1.06-3.67-2.55-4.78-4.47-.7-1.2-1.15-2.53-1.41-3.96h32.54c.05-.41,.09-.89,.12-1.44,.03-.54,.04-1,.04-1.36,0-4.4-.91-8.21-2.72-11.42-1.81-3.21-4.3-5.71-7.46-7.5-3.16-1.79-6.76-2.68-10.8-2.68s-7.84,.92-11.07,2.76c-3.24,1.84-5.78,4.35-7.61,7.54-1.84,3.19-2.76,6.85-2.76,11s.94,7.81,2.84,11c1.89,3.19,4.56,5.7,8,7.54Zm.12-26.07c.98-1.86,2.39-3.3,4.23-4.31,1.84-1.01,3.92-1.52,6.25-1.52s4.45,.51,6.22,1.52c1.76,1.01,3.15,2.44,4.16,4.27,.71,1.29,1.14,2.71,1.33,4.23h-23.49c.21-1.53,.64-2.93,1.3-4.2Z"/>
    <path d="M398.76,134.27c3.11-1.68,5.44-4.08,6.99-7.19l-7.38-4.35c-1.24,1.97-2.76,3.43-4.55,4.39-1.79,.96-3.72,1.44-5.79,1.44-2.38,0-4.53-.53-6.45-1.59-1.92-1.06-3.42-2.58-4.51-4.55-1.09-1.97-1.63-4.27-1.63-6.92s.54-4.93,1.63-6.88,2.59-3.44,4.51-4.51c1.92-1.06,4.07-1.59,6.45-1.59,2.07,0,4,.48,5.79,1.44,1.79,.96,3.3,2.4,4.55,4.31l7.38-4.35c-1.55-3.16-3.89-5.57-6.99-7.23-3.11-1.66-6.66-2.49-10.65-2.49-4.35,0-8.22,.92-11.62,2.76-3.39,1.84-6.05,4.34-7.97,7.5-1.92,3.16-2.87,6.84-2.87,11.03s.96,7.81,2.87,11c1.92,3.19,4.57,5.7,7.97,7.54,3.39,1.84,7.27,2.76,11.62,2.76,3.99,0,7.54-.84,10.65-2.53Z"/>
    <path d="M439.55,133.99l-2.8-6.92c-1.4,1.14-3.16,1.71-5.28,1.71-1.87,0-3.32-.54-4.35-1.63-1.04-1.09-1.55-2.62-1.55-4.58v-20.05h11.19v-7.77h-11.19v-9.17h-9.63v9.17h-6.84v7.77h6.84v20.36c0,4.56,1.24,8.02,3.73,10.37,2.49,2.36,6.01,3.54,10.57,3.54,1.71,0,3.39-.23,5.05-.7,1.66-.47,3.08-1.17,4.27-2.1Z"/>
    <rect x="447.63" y="94.75" width="9.64" height="41.5"/>
    <path d="M452.45,87.91c1.87,0,3.37-.58,4.51-1.75,1.14-1.17,1.71-2.58,1.71-4.23s-.58-3.02-1.75-4.08c-1.17-1.06-2.66-1.59-4.47-1.59s-3.3,.57-4.47,1.71c-1.17,1.14-1.75,2.49-1.75,4.04,0,1.66,.58,3.06,1.75,4.2,1.17,1.14,2.65,1.71,4.47,1.71Z"/>
    <path d="M501.25,136.25h9.71v-23.78c0-4.2-.76-7.64-2.29-10.34-1.53-2.69-3.57-4.69-6.14-5.98-2.56-1.29-5.53-1.94-8.9-1.94-3.63,0-6.83,.73-9.6,2.18-1.85,.97-3.39,2.21-4.62,3.7v-5.34h-9.25v41.5h9.64v-20.98c0-2.8,.48-5.12,1.44-6.95,.96-1.84,2.32-3.22,4.08-4.16,1.76-.93,3.78-1.4,6.06-1.4,3.16,0,5.59,.91,7.3,2.72,1.71,1.81,2.56,4.56,2.56,8.24v22.53Z"/>
    <path d="M558.75,146.54c3.83-3.55,5.75-9.08,5.75-16.59v-35.2h-9.25v5.46c-1.36-1.63-2.98-2.92-4.86-3.87-2.82-1.42-6-2.14-9.52-2.14-3.99,0-7.56,.83-10.72,2.49-3.16,1.66-5.66,4-7.5,7.03-1.84,3.03-2.76,6.57-2.76,10.61s.92,7.49,2.76,10.49c1.84,3,4.34,5.35,7.5,7.03,3.16,1.68,6.73,2.53,10.72,2.53,3.52,0,6.69-.73,9.52-2.18,1.67-.86,3.13-1.98,4.39-3.37v2.2c0,4.25-1.06,7.42-3.19,9.52-2.12,2.1-5.44,3.15-9.95,3.15-2.95,0-5.8-.47-8.55-1.4-2.75-.93-5.03-2.15-6.84-3.65l-4.35,7.23c2.38,1.97,5.37,3.46,8.97,4.47,3.6,1.01,7.34,1.52,11.23,1.52,7.25,0,12.79-1.77,16.63-5.32Zm-5.4-26.11c-1.06,1.79-2.55,3.19-4.47,4.2-1.92,1.01-4.09,1.52-6.53,1.52s-4.62-.5-6.57-1.52c-1.94-1.01-3.45-2.41-4.51-4.2-1.06-1.79-1.59-3.82-1.59-6.1s.53-4.45,1.59-6.22c1.06-1.76,2.56-3.13,4.51-4.12,1.94-.98,4.13-1.48,6.57-1.48s4.61,.49,6.53,1.48c1.92,.98,3.41,2.36,4.47,4.12,1.06,1.76,1.59,3.83,1.59,6.22s-.53,4.31-1.59,6.1Z"/>
    <path d="M123.02,188.54c1.74-1.71,3.78-3.03,6.14-3.96,2.36-.93,4.96-1.4,7.81-1.4s5.41,.53,7.85,1.59c2.43,1.06,4.66,2.66,6.68,4.78l6.53-6.14c-2.54-3-5.65-5.27-9.33-6.8-3.68-1.53-7.74-2.29-12.2-2.29-4.2,0-8.06,.69-11.58,2.06-3.52,1.37-6.61,3.33-9.25,5.87-2.64,2.54-4.69,5.49-6.14,8.86-1.45,3.37-2.18,7.1-2.18,11.19s.72,7.82,2.18,11.19c1.45,3.37,3.48,6.32,6.1,8.86,2.62,2.54,5.68,4.49,9.21,5.87,3.52,1.37,7.38,2.06,11.58,2.06,4.51,0,8.6-.78,12.28-2.33,3.68-1.55,6.79-3.83,9.33-6.84l-6.53-6.14c-2.02,2.18-4.25,3.8-6.68,4.86-2.44,1.06-5.05,1.59-7.85,1.59s-5.45-.47-7.81-1.4c-2.36-.93-4.4-2.25-6.14-3.96-1.74-1.71-3.1-3.73-4.08-6.06-.98-2.33-1.48-4.9-1.48-7.69s.49-5.36,1.48-7.69c.98-2.33,2.34-4.35,4.08-6.06Z"/>
    <path d="M194.27,190.21c-3.34-1.84-7.16-2.76-11.46-2.76s-8.03,.92-11.35,2.76c-3.32,1.84-5.93,4.34-7.85,7.5-1.92,3.16-2.88,6.84-2.88,11.03s.96,7.75,2.88,10.96c1.92,3.21,4.55,5.74,7.89,7.58,3.34,1.84,7.11,2.76,11.31,2.76s8.05-.92,11.42-2.76c3.37-1.84,6-4.35,7.89-7.54,1.89-3.19,2.84-6.85,2.84-11s-.95-7.87-2.84-11.03c-1.89-3.16-4.51-5.66-7.85-7.5Zm-.7,25.41c-1.06,1.99-2.53,3.52-4.39,4.58-1.86,1.06-3.99,1.59-6.37,1.59s-4.35-.53-6.22-1.59c-1.87-1.06-3.34-2.59-4.43-4.58-1.09-1.99-1.63-4.29-1.63-6.88s.54-4.93,1.63-6.88c1.09-1.94,2.56-3.44,4.43-4.51,1.86-1.06,3.96-1.59,6.29-1.59s4.43,.53,6.29,1.59c1.87,1.06,3.33,2.56,4.39,4.51,1.06,1.94,1.59,4.23,1.59,6.88s-.53,4.88-1.59,6.88Z"/>
    <path d="M275.48,189.4c-2.56-1.29-5.51-1.94-8.82-1.94-4.09,0-7.69,.96-10.8,2.87-1.91,1.18-3.47,2.57-4.69,4.17-.99-1.71-2.27-3.11-3.85-4.17-2.85-1.92-6.22-2.87-10.1-2.87-3.47,0-6.54,.73-9.21,2.18-1.73,.94-3.19,2.14-4.39,3.58v-5.22h-9.25v41.5h9.64v-21.06c0-2.75,.45-5.04,1.36-6.88,.91-1.84,2.18-3.22,3.81-4.16s3.51-1.4,5.63-1.4c3,0,5.32,.91,6.95,2.72,1.63,1.81,2.45,4.56,2.45,8.24v22.53h9.64v-21.06c0-2.75,.45-5.04,1.36-6.88,.91-1.84,2.18-3.22,3.81-4.16s3.51-1.4,5.63-1.4c3,0,5.32,.91,6.95,2.72,1.63,1.81,2.45,4.56,2.45,8.24v22.53h9.64v-23.78c0-4.2-.73-7.64-2.18-10.34-1.45-2.69-3.46-4.69-6.02-5.98Z"/>
    <path d="M357.3,189.4c-2.56-1.29-5.5-1.94-8.82-1.94-4.09,0-7.69,.96-10.8,2.87-1.91,1.18-3.47,2.57-4.69,4.17-.99-1.71-2.27-3.11-3.85-4.17-2.85-1.92-6.22-2.87-10.1-2.87-3.47,0-6.54,.73-9.21,2.18-1.73,.94-3.19,2.14-4.39,3.58v-5.22h-9.25v41.5h9.64v-21.06c0-2.75,.45-5.04,1.36-6.88,.91-1.84,2.18-3.22,3.81-4.16s3.51-1.4,5.63-1.4c3,0,5.32,.91,6.95,2.72,1.63,1.81,2.45,4.56,2.45,8.24v22.53h9.64v-21.06c0-2.75,.45-5.04,1.36-6.88,.91-1.84,2.18-3.22,3.81-4.16s3.51-1.4,5.63-1.4c3.01,0,5.32,.91,6.95,2.72,1.63,1.81,2.45,4.56,2.45,8.24v22.53h9.63v-23.78c0-4.2-.73-7.64-2.18-10.34-1.45-2.69-3.46-4.69-6.02-5.98Z"/>
    <path d="M408.39,208.98c0,2.75-.47,5.05-1.4,6.92-.93,1.86-2.25,3.26-3.96,4.2-1.71,.93-3.7,1.4-5.98,1.4-3.06,0-5.44-.92-7.15-2.76-1.71-1.84-2.56-4.6-2.56-8.28v-22.46h-9.79v23.7c0,4.14,.76,7.58,2.29,10.3,1.53,2.72,3.64,4.74,6.33,6.06,2.69,1.32,5.8,1.98,9.32,1.98,3.21,0,6.16-.72,8.86-2.18,1.79-.96,3.29-2.2,4.51-3.69v5.32h9.25v-41.5h-9.71v20.98Z"/>
    <path d="M463.29,189.4c-2.56-1.29-5.53-1.94-8.9-1.94-3.63,0-6.83,.73-9.6,2.18-1.85,.97-3.39,2.21-4.62,3.7v-5.34h-9.25v41.5h9.64v-20.98c0-2.8,.48-5.12,1.44-6.95,.96-1.84,2.32-3.22,4.08-4.16,1.76-.93,3.78-1.4,6.06-1.4,3.16,0,5.59,.91,7.3,2.72,1.71,1.81,2.56,4.56,2.56,8.24v22.53h9.71v-23.78c0-4.2-.76-7.64-2.29-10.34-1.53-2.69-3.57-4.69-6.14-5.98Z"/>
    <rect x="484.16" y="188" width="9.64" height="41.5"/>
    <path d="M488.97,169.51c-1.81,0-3.3,.57-4.47,1.71-1.17,1.14-1.75,2.49-1.75,4.04,0,1.66,.58,3.06,1.75,4.2,1.17,1.14,2.65,1.71,4.47,1.71s3.37-.58,4.51-1.75c1.14-1.17,1.71-2.58,1.71-4.23s-.58-3.02-1.75-4.08c-1.17-1.06-2.66-1.59-4.47-1.59Z"/>
    <path d="M521.92,222.04c-1.87,0-3.32-.54-4.35-1.63-1.04-1.09-1.55-2.62-1.55-4.58v-20.05h11.19v-7.77h-11.19v-9.17h-9.63v9.17h-6.84v7.77h6.84v20.36c0,4.56,1.24,8.02,3.73,10.37,2.49,2.36,6.01,3.54,10.57,3.54,1.71,0,3.39-.23,5.05-.7,1.66-.47,3.08-1.17,4.27-2.1l-2.8-6.92c-1.4,1.14-3.16,1.71-5.28,1.71Z"/>
    <rect x="538.08" y="188" width="9.64" height="41.5"/>
    <path d="M542.9,169.51c-1.81,0-3.3,.57-4.47,1.71-1.17,1.14-1.75,2.49-1.75,4.04,0,1.66,.58,3.06,1.75,4.2,1.17,1.14,2.65,1.71,4.47,1.71s3.37-.58,4.51-1.75c1.14-1.17,1.71-2.58,1.71-4.23s-.58-3.02-1.75-4.08c-1.17-1.06-2.66-1.59-4.47-1.59Z"/>
    <path d="M589.37,190.14c-3.16-1.79-6.76-2.68-10.8-2.68s-7.84,.92-11.07,2.76c-3.24,1.84-5.78,4.35-7.61,7.54-1.84,3.19-2.76,6.85-2.76,11s.94,7.81,2.84,11c1.89,3.19,4.56,5.7,8,7.54,3.44,1.84,7.47,2.76,12.08,2.76,3.63,0,6.85-.57,9.67-1.71,2.82-1.14,5.19-2.8,7.11-4.97l-5.28-6.06c-1.45,1.5-3.11,2.64-4.97,3.42-1.86,.78-3.96,1.17-6.29,1.17-2.75,0-5.15-.53-7.23-1.59-2.07-1.06-3.67-2.55-4.78-4.47-.7-1.2-1.15-2.53-1.41-3.96h32.54c.05-.41,.09-.89,.12-1.44,.03-.54,.04-1,.04-1.36,0-4.4-.91-8.21-2.72-11.42-1.81-3.21-4.3-5.71-7.46-7.5Zm-21.29,11.07c.98-1.86,2.39-3.3,4.23-4.31,1.84-1.01,3.92-1.52,6.25-1.52s4.45,.51,6.22,1.52c1.76,1.01,3.15,2.44,4.16,4.27,.71,1.29,1.14,2.71,1.33,4.23h-23.49c.21-1.53,.64-2.93,1.3-4.2Z"/>
    <path d="M639.1,211.54c-.93-1.45-2.16-2.58-3.69-3.38-1.53-.8-3.2-1.42-5.01-1.86-1.81-.44-3.64-.8-5.48-1.09-1.84-.28-3.51-.6-5.01-.93-1.5-.34-2.72-.82-3.65-1.44-.93-.62-1.4-1.55-1.4-2.8,0-1.35,.73-2.45,2.18-3.3s3.63-1.28,6.53-1.28c1.97,0,3.96,.22,5.98,.66,2.02,.44,3.99,1.23,5.91,2.37l3.81-7.38c-1.92-1.14-4.31-2.03-7.19-2.68-2.88-.65-5.69-.97-8.43-.97-3.73,0-6.95,.54-9.67,1.63-2.72,1.09-4.83,2.6-6.33,4.55-1.5,1.94-2.25,4.21-2.25,6.8,0,2.44,.47,4.38,1.4,5.83,.93,1.45,2.15,2.6,3.65,3.46,1.5,.85,3.17,1.5,5.01,1.94,1.84,.44,3.68,.79,5.52,1.05,1.84,.26,3.51,.54,5.01,.85,1.5,.31,2.72,.76,3.65,1.36,.93,.6,1.4,1.46,1.4,2.6,0,1.4-.69,2.5-2.06,3.3-1.37,.8-3.56,1.2-6.57,1.2-2.64,0-5.26-.38-7.85-1.13-2.59-.75-4.82-1.72-6.68-2.91l-3.73,7.38c1.92,1.3,4.45,2.4,7.61,3.3,3.16,.91,6.5,1.36,10.02,1.36,3.89,0,7.21-.53,9.99-1.59s4.92-2.54,6.45-4.43c1.53-1.89,2.29-4.16,2.29-6.8,0-2.33-.47-4.22-1.4-5.67Z"/>
  </g>
  <rect class="cls-1" x="41.72" y="38.71" width="154.8" height="154.8" transform="translate(60.92 -39.72) rotate(25.25)"/>
  <rect class="cls-1" x="64.14" y="74.12" width="154.8" height="154.8" transform="translate(78.16 -45.9) rotate(25.25)"/>
  <rect class="cls-1" x="41.51" y="91.61" width="154.8" height="154.8" transform="translate(83.46 -34.58) rotate(25.25)"/>
</svg>