<?xml version="1.0" encoding="UTF-8"?>
<svg id="Layer_1" data-name="Layer 1" xmlns="http://www.w3.org/2000/svg" viewBox="0 0 305 305">
  <defs>
    <style>
      .cls-1 {
        fill: #a54fbe;
      }

      .cls-2 {
        fill: #294df0;
      }
    </style>
  </defs>
  <path class="cls-1" d="M113.47,195.99c-1.94-1.91-1.96-4.08-1.96-6.24-.04-21.35-.12-42.71-.1-64.06,0-7.34,1.18-14.58,3.5-21.52,8.24-24.59,25.59-38.72,50.85-43.34,5.56-1.02,11.24-1.34,16.95-1.26,25.13,.35,50.26,.55,75.4,.82,4.59,.05,9.14,.29,13.65,1.51,16.66,4.52,26.07,15.53,29.16,32.22,.64,3.44,.94,6.98,.98,10.48,.28,27.03,.73,54.06,.57,81.09-.11,18.02-6.42,33.84-19.47,46.61-11.49,11.24-25.45,17.01-41.37,18.25-2.96,.23-5.94,.18-8.91,.18-19.19,.01-38.38,.02-57.57,0-2.43,0-4.86-.07-7.27-.24-1.34-.1-2.26-2-1.57-3.1,.57-.9,1.2-1.8,1.96-2.54,8.9-8.68,17.88-17.28,26.73-26.01,2.88-2.84,6.11-4.13,10.17-4.06,9.73,.17,19.46,.15,29.19,.14,3.51,0,6.98-.14,10.44-1.08,12.88-3.5,20.76-12.76,21.82-26.04,.19-2.42,.15-4.86,.13-7.29-.16-24.33-.3-48.65-.51-72.98-.09-10.25-1.41-11.54-11.83-11.58-24.32-.11-48.65-.17-72.98-.21-2.97,0-5.96,.06-8.9,.39-11.96,1.34-21.07,9.28-24.07,20.93-.94,3.67-1.53,7.39-1.45,11.22,.17,8.92,.03,17.84,.39,26.75,.22,5.5-1.21,9.79-5.4,13.66-7.73,7.15-14.98,14.83-22.47,22.25-1.88,1.86-3.58,3.99-6.05,5.05Z"/>
  <path class="cls-2" d="M192.03,110.24c1.38,.8,1.07,1.99,1.08,3.01,.17,18.12,.35,36.23,.43,54.35,.03,7.3-.39,14.58-1.13,21.86-2.39,23.39-15.08,39.32-35.65,49.56-8.12,4.04-16.88,5.79-25.87,5.98-28.66,.58-57.32,.36-85.98-.24-5.13-.11-10.25-.67-15.14-2.46-14.16-5.19-22.57-15.31-25.48-30-.63-3.16-.8-6.44-.9-9.68-.88-28.38-1.11-56.78-.68-85.17,.45-29.35,20.77-54.1,49.36-60.69,6.32-1.46,12.81-2.06,19.3-2.26,22.18-.68,44.33,.36,66.5,.84,.47,.01,.92,.45,1.39,.7,.05,1.54-1.17,2.29-2.07,3.2-9,8.97-18.09,17.85-27,26.92-2.67,2.72-5.55,3.87-9.34,3.79-9.73-.2-19.47-.12-29.2-.13-2.97,0-5.91,.18-8.86,.73-16.03,2.99-24.6,15.28-24.78,29.67-.1,7.3-.05,14.6-.02,21.9,.07,18.12,.15,36.24,.28,54.35,.02,2.42,.19,4.86,.56,7.25,.46,2.98,2.33,4.83,5.34,5.31,1.59,.25,3.22,.34,4.84,.35,25.41,.17,50.83,.34,76.24,.41,3.22,0,6.48-.35,9.65-.94,10.49-1.97,17.48-8.32,21.01-18.18,2-5.58,2.76-11.37,1.53-17.51-3.16-15.82,.61-30.02,11.26-42.27,6.41-7.38,13.64-13.87,21.38-19.82,.57-.44,1.38-.59,1.95-.82Z"/>
</svg>