<?xml version="1.0" encoding="UTF-8"?>
<svg id="Layer_1" data-name="Layer 1" xmlns="http://www.w3.org/2000/svg" viewBox="0 0 676.5 311">
  <defs>
    <style>
      .cls-1 {
        stroke: #000;
        stroke-miterlimit: 10;
      }

      .cls-2 {
        fill: #ccc;
      }
    </style>
  </defs>
  <path class="cls-1" d="M133.85,2.67c16.45,0,32.42,3.22,47.44,9.58,14.51,6.14,27.55,14.93,38.74,26.12,11.19,11.19,19.98,24.23,26.12,38.74,6.36,15.03,9.58,30.99,9.58,47.44s-3.22,32.42-9.58,47.44c-6.14,14.51-14.93,27.55-26.12,38.74-11.19,11.19-24.23,19.98-38.74,26.12-15.03,6.36-30.99,9.58-47.44,9.58s-32.42-3.22-47.44-9.58c-14.51-6.14-27.55-14.93-38.74-26.12-11.19-11.19-19.98-24.23-26.12-38.74-6.36-15.03-9.58-30.99-9.58-47.44s3.22-32.42,9.58-47.44c6.14-14.51,14.93-27.55,26.12-38.74,11.19-11.19,24.23-19.98,38.74-26.12,15.03-6.36,30.99-9.58,47.44-9.58m0-.46C66.28,2.21,11.5,56.98,11.5,124.55s54.78,122.35,122.35,122.35,122.35-54.78,122.35-122.35S201.42,2.21,133.85,2.21h0Z"/>
  <path class="cls-1" d="M164.66,32.16c16.45,0,32.42,3.22,47.44,9.58,14.51,6.14,27.55,14.93,38.74,26.12s19.98,24.23,26.12,38.74c6.36,15.03,9.58,30.99,9.58,47.44s-3.22,32.42-9.58,47.44c-6.14,14.51-14.93,27.55-26.12,38.74-11.19,11.19-24.23,19.98-38.74,26.12-15.03,6.36-30.99,9.58-47.44,9.58s-32.42-3.22-47.44-9.58c-14.51-6.14-27.55-14.93-38.74-26.12-11.19-11.19-19.98-24.23-26.12-38.74-6.36-15.03-9.58-30.99-9.58-47.44s3.22-32.42,9.58-47.44c6.14-14.51,14.93-27.55,26.12-38.74,11.19-11.19,24.23-19.98,38.74-26.12,15.03-6.36,30.99-9.58,47.44-9.58m0-.46c-67.57,0-122.35,54.78-122.35,122.35s54.78,122.35,122.35,122.35,122.35-54.78,122.35-122.35S232.23,31.7,164.66,31.7h0Z"/>
  <path class="cls-1" d="M139.81,54.77c16.45,0,32.42,3.22,47.44,9.58,14.51,6.14,27.55,14.93,38.74,26.12,11.19,11.19,19.98,24.23,26.12,38.74,6.36,15.03,9.58,30.99,9.58,47.44s-3.22,32.42-9.58,47.44c-6.14,14.51-14.93,27.55-26.12,38.74-11.19,11.19-24.23,19.98-38.74,26.12-15.03,6.36-30.99,9.58-47.44,9.58s-32.42-3.22-47.44-9.58c-14.51-6.14-27.55-14.93-38.74-26.12-11.19-11.19-19.98-24.23-26.12-38.74-6.36-15.03-9.58-30.99-9.58-47.44s3.22-32.42,9.58-47.44c6.14-14.51,14.93-27.55,26.12-38.74,11.19-11.19,24.23-19.98,38.74-26.12,15.03-6.36,30.99-9.58,47.44-9.58m0-.46c-67.57,0-122.35,54.78-122.35,122.35s54.78,122.35,122.35,122.35,122.35-54.78,122.35-122.35-54.78-122.35-122.35-122.35h0Z"/>
  <g>
    <polygon class="cls-2" points="151.79 129.39 121.95 129.39 121.95 114.88 147.48 114.88 147.48 106.8 121.95 106.8 121.95 93.12 150.73 93.12 150.73 84.81 112.13 84.81 112.13 137.7 151.79 137.7 151.79 129.39"/>
    <path class="cls-2" d="M221.41,98.72c-2.49-1.26-5.35-1.89-8.57-1.89-3.98,0-7.48,.93-10.5,2.79-1.85,1.14-3.37,2.5-4.56,4.06-.96-1.66-2.21-3.02-3.75-4.06-2.77-1.86-6.04-2.79-9.82-2.79-3.38,0-6.36,.71-8.95,2.12-1.68,.92-3.1,2.08-4.27,3.48v-5.07h-8.99v40.34h9.37v-20.47c0-2.67,.44-4.9,1.32-6.69,.88-1.79,2.12-3.14,3.7-4.04s3.41-1.36,5.48-1.36c2.92,0,5.17,.88,6.76,2.64,1.59,1.76,2.38,4.43,2.38,8.01v21.91h9.37v-20.47c0-2.67,.44-4.9,1.32-6.69,.88-1.79,2.12-3.14,3.7-4.04s3.41-1.36,5.48-1.36c2.92,0,5.17,.88,6.76,2.64,1.59,1.76,2.38,4.43,2.38,8.01v21.91h9.37v-23.12c0-4.08-.71-7.43-2.12-10.05-1.41-2.62-3.36-4.56-5.85-5.82Z"/>
    <path class="cls-2" d="M284.3,117.53c0-4.13-.89-7.76-2.68-10.88-1.79-3.12-4.22-5.54-7.29-7.25-3.07-1.71-6.57-2.57-10.5-2.57-3.38,0-6.42,.74-9.14,2.23-1.6,.87-2.98,2.03-4.15,3.44v-5.14h-8.99v55h9.37v-19.57c1.14,1.31,2.45,2.39,3.93,3.22,2.67,1.49,5.67,2.23,8.99,2.23,3.93,0,7.43-.86,10.5-2.57,3.07-1.71,5.5-4.12,7.29-7.21,1.79-3.1,2.68-6.74,2.68-10.92Zm-11.18,6.65c-1.06,1.91-2.48,3.4-4.27,4.46-1.79,1.06-3.84,1.59-6.16,1.59s-4.23-.53-6.04-1.59c-1.81-1.06-3.25-2.54-4.31-4.46-1.06-1.91-1.59-4.13-1.59-6.65s.53-4.8,1.59-6.69,2.49-3.35,4.31-4.38c1.81-1.03,3.83-1.55,6.04-1.55s4.37,.52,6.16,1.55c1.79,1.03,3.21,2.49,4.27,4.38s1.59,4.12,1.59,6.69-.53,4.73-1.59,6.65Z"/>
    <path class="cls-2" d="M300.43,135.54c3.25,1.79,6.91,2.68,10.99,2.68s7.83-.89,11.11-2.68c3.27-1.79,5.83-4.23,7.67-7.33,1.84-3.1,2.76-6.66,2.76-10.69s-.92-7.65-2.76-10.73c-1.84-3.07-4.38-5.5-7.63-7.29-3.25-1.79-6.96-2.68-11.14-2.68s-7.81,.89-11.03,2.68c-3.22,1.79-5.77,4.22-7.63,7.29-1.86,3.07-2.8,6.65-2.8,10.73s.93,7.53,2.8,10.65c1.86,3.12,4.42,5.58,7.67,7.37Zm.64-24.7c1.06-1.89,2.49-3.35,4.31-4.38,1.81-1.03,3.85-1.55,6.12-1.55s4.31,.52,6.12,1.55c1.81,1.03,3.24,2.49,4.27,4.38,1.03,1.89,1.55,4.12,1.55,6.69s-.52,4.75-1.55,6.69c-1.03,1.94-2.46,3.43-4.27,4.46-1.81,1.03-3.88,1.55-6.2,1.55s-4.23-.52-6.04-1.55c-1.81-1.03-3.25-2.52-4.31-4.46-1.06-1.94-1.59-4.17-1.59-6.69s.53-4.8,1.59-6.69Z"/>
    <polygon class="cls-2" points="384.48 127.16 373.6 97.36 365.66 97.36 354.56 127.06 343.9 97.36 334.99 97.36 349.8 137.7 358.86 137.7 369.5 109.81 379.87 137.7 388.93 137.7 403.81 97.36 395.43 97.36 384.48 127.16"/>
    <path class="cls-2" d="M416.39,135.54c3.35,1.79,7.26,2.68,11.75,2.68,3.52,0,6.66-.55,9.41-1.66,2.75-1.11,5.05-2.72,6.91-4.83l-5.14-5.89c-1.41,1.46-3.02,2.57-4.83,3.32-1.81,.76-3.85,1.13-6.12,1.13-2.67,0-5.01-.52-7.03-1.55-2.02-1.03-3.56-2.48-4.65-4.34-.68-1.17-1.12-2.46-1.37-3.85h31.63c.05-.4,.09-.87,.11-1.4,.02-.53,.04-.97,.04-1.32,0-4.28-.88-7.98-2.64-11.11-1.76-3.12-4.18-5.55-7.25-7.29-3.07-1.74-6.57-2.61-10.5-2.61s-7.62,.89-10.77,2.68c-3.15,1.79-5.62,4.23-7.4,7.33-1.79,3.1-2.68,6.66-2.68,10.69s.92,7.59,2.76,10.69c1.84,3.1,4.43,5.54,7.78,7.33Zm.11-25.35c.96-1.81,2.33-3.21,4.12-4.19,1.79-.98,3.81-1.47,6.08-1.47s4.33,.49,6.04,1.47c1.71,.98,3.06,2.37,4.04,4.16,.69,1.25,1.11,2.63,1.29,4.12h-22.84c.21-1.48,.62-2.85,1.27-4.08Z"/>
    <path class="cls-2" d="M478.38,105.7c.35,.03,.7,.06,1.06,.11v-8.99c-3.78,0-6.98,.72-9.59,2.15-1.94,1.06-3.47,2.48-4.61,4.24v-5.86h-8.99v40.34h9.37v-19.49c0-4.23,1.06-7.38,3.17-9.44,2.12-2.06,4.99-3.1,8.61-3.1,.3,0,.63,.01,.98,.04Z"/>
    <path class="cls-2" d="M491.9,90.71c1.81,0,3.27-.57,4.38-1.7,1.11-1.13,1.66-2.5,1.66-4.12s-.57-2.93-1.7-3.97c-1.13-1.03-2.58-1.55-4.34-1.55s-3.21,.55-4.34,1.66c-1.13,1.11-1.7,2.42-1.7,3.93,0,1.61,.57,2.97,1.7,4.08,1.13,1.11,2.58,1.66,4.34,1.66Z"/>
    <rect class="cls-2" x="487.22" y="97.36" width="9.37" height="40.34"/>
    <path class="cls-2" d="M540.59,98.72c-2.49-1.26-5.38-1.89-8.65-1.89-3.53,0-6.64,.71-9.33,2.12-1.8,.94-3.29,2.15-4.5,3.6v-5.19h-8.99v40.34h9.37v-20.4c0-2.72,.46-4.97,1.4-6.76,.93-1.79,2.25-3.14,3.97-4.04,1.71-.91,3.68-1.36,5.89-1.36,3.07,0,5.44,.88,7.1,2.64,1.66,1.76,2.49,4.43,2.49,8.01v21.91h9.44v-23.12c0-4.08-.74-7.43-2.23-10.05-1.49-2.62-3.47-4.56-5.97-5.82Z"/>
    <path class="cls-2" d="M591.85,97.36v5.31c-1.33-1.58-2.89-2.84-4.72-3.76-2.75-1.38-5.83-2.08-9.25-2.08-3.88,0-7.35,.81-10.43,2.42-3.07,1.61-5.5,3.89-7.29,6.84-1.79,2.95-2.68,6.38-2.68,10.31s.89,7.28,2.68,10.2c1.79,2.92,4.22,5.2,7.29,6.84,3.07,1.64,6.55,2.46,10.43,2.46,3.42,0,6.51-.71,9.25-2.12,1.62-.83,3.04-1.93,4.27-3.27v2.14c0,4.13-1.03,7.21-3.1,9.25-2.07,2.04-5.29,3.06-9.67,3.06-2.87,0-5.64-.45-8.31-1.36-2.67-.91-4.89-2.09-6.65-3.55l-4.23,7.03c2.32,1.91,5.22,3.36,8.73,4.34,3.5,.98,7.14,1.47,10.92,1.47,7.05,0,12.44-1.73,16.17-5.17,3.73-3.45,5.59-8.83,5.59-16.13v-34.22h-8.99Zm-1.85,24.97c-1.03,1.74-2.48,3.1-4.34,4.08-1.86,.98-3.98,1.47-6.35,1.47s-4.5-.49-6.38-1.47c-1.89-.98-3.35-2.34-4.38-4.08-1.03-1.74-1.55-3.71-1.55-5.93s.52-4.33,1.55-6.04c1.03-1.71,2.49-3.05,4.38-4,1.89-.96,4.02-1.44,6.38-1.44s4.48,.48,6.35,1.44c1.86,.96,3.31,2.29,4.34,4,1.03,1.71,1.55,3.73,1.55,6.04s-.52,4.19-1.55,5.93Z"/>
    <rect class="cls-2" x="112.13" y="175.47" width="9.82" height="52.88"/>
    <path class="cls-2" d="M166.79,189.37c-2.49-1.26-5.38-1.89-8.65-1.89-3.53,0-6.64,.71-9.33,2.12-1.8,.94-3.29,2.15-4.5,3.6v-5.19h-8.99v40.34h9.37v-20.4c0-2.72,.47-4.97,1.4-6.76,.93-1.79,2.25-3.14,3.97-4.04,1.71-.91,3.68-1.36,5.89-1.36,3.07,0,5.44,.88,7.1,2.64,1.66,1.76,2.49,4.43,2.49,8.01v21.91h9.44v-23.12c0-4.08-.74-7.43-2.23-10.05-1.49-2.62-3.48-4.56-5.97-5.82Z"/>
    <path class="cls-2" d="M218.54,189.37c-2.49-1.26-5.38-1.89-8.65-1.89-3.53,0-6.64,.71-9.33,2.12-1.8,.94-3.29,2.15-4.5,3.6v-5.19h-8.99v40.34h9.37v-20.4c0-2.72,.47-4.97,1.4-6.76,.93-1.79,2.25-3.14,3.97-4.04,1.71-.91,3.68-1.36,5.89-1.36,3.07,0,5.44,.88,7.1,2.64,1.66,1.76,2.49,4.43,2.49,8.01v21.91h9.44v-23.12c0-4.08-.74-7.43-2.23-10.05-1.49-2.62-3.48-4.56-5.97-5.82Z"/>
    <path class="cls-2" d="M268.02,190.17c-3.25-1.79-6.96-2.68-11.14-2.68s-7.81,.89-11.03,2.68c-3.22,1.79-5.77,4.22-7.63,7.29-1.86,3.07-2.8,6.65-2.8,10.73s.93,7.53,2.8,10.65c1.86,3.12,4.42,5.58,7.67,7.37,3.25,1.79,6.91,2.68,10.99,2.68s7.83-.89,11.11-2.68c3.27-1.79,5.83-4.23,7.67-7.33,1.84-3.1,2.76-6.66,2.76-10.69s-.92-7.65-2.76-10.73c-1.84-3.07-4.38-5.5-7.63-7.29Zm-.68,24.7c-1.03,1.94-2.46,3.43-4.27,4.46-1.81,1.03-3.88,1.55-6.19,1.55s-4.23-.52-6.04-1.55c-1.81-1.03-3.25-2.52-4.31-4.46-1.06-1.94-1.59-4.17-1.59-6.69s.53-4.8,1.59-6.69c1.06-1.89,2.49-3.35,4.31-4.38,1.81-1.03,3.85-1.55,6.12-1.55s4.31,.52,6.12,1.55c1.81,1.03,3.24,2.49,4.27,4.38,1.03,1.89,1.55,4.12,1.55,6.69s-.52,4.75-1.55,6.69Z"/>
    <polygon class="cls-2" points="302.09 217.93 289.51 188.01 279.77 188.01 297.07 228.35 306.81 228.35 324.11 188.01 315.05 188.01 302.09 217.93"/>
    <path class="cls-2" d="M344.28,187.48c-3.22,0-6.32,.43-9.29,1.28-2.97,.86-5.57,2.12-7.78,3.78l3.7,6.88c1.56-1.26,3.42-2.24,5.59-2.95,2.17-.71,4.36-1.06,6.57-1.06,3.42,0,5.98,.77,7.67,2.3,1.69,1.54,2.53,3.69,2.53,6.46v.6h-10.5c-4.08,0-7.35,.53-9.82,1.59-2.47,1.06-4.24,2.49-5.33,4.31-1.08,1.81-1.62,3.85-1.62,6.12s.62,4.39,1.85,6.23c1.23,1.84,2.98,3.27,5.25,4.31s4.91,1.55,7.93,1.55c3.63,0,6.6-.65,8.91-1.96,1.6-.9,2.85-2.06,3.78-3.47v4.9h8.92v-23.65c0-5.84-1.59-10.17-4.76-12.99-3.17-2.82-7.71-4.23-13.6-4.23Zm4.95,32.94c-1.84,1.06-3.92,1.59-6.23,1.59s-4.31-.5-5.67-1.51c-1.36-1.01-2.04-2.34-2.04-4,0-1.56,.57-2.86,1.7-3.89,1.13-1.03,3.29-1.55,6.46-1.55h9.82v4.68c-.86,2.07-2.2,3.63-4.04,4.68Z"/>
    <path class="cls-2" d="M391.05,221.1c-1.81,0-3.22-.53-4.23-1.59-1.01-1.06-1.51-2.54-1.51-4.46v-19.49h10.88v-7.55h-10.88v-8.91h-9.37v8.91h-6.65v7.55h6.65v19.79c0,4.43,1.21,7.79,3.63,10.09,2.42,2.29,5.84,3.44,10.27,3.44,1.66,0,3.3-.23,4.91-.68,1.61-.45,3-1.13,4.15-2.04l-2.72-6.72c-1.36,1.11-3.07,1.66-5.14,1.66Z"/>
    <rect class="cls-2" x="406.76" y="188.01" width="9.37" height="40.34"/>
    <path class="cls-2" d="M411.44,170.03c-1.76,0-3.21,.55-4.34,1.66-1.13,1.11-1.7,2.42-1.7,3.93,0,1.61,.57,2.97,1.7,4.08,1.13,1.11,2.58,1.66,4.34,1.66s3.27-.57,4.38-1.7c1.11-1.13,1.66-2.5,1.66-4.12s-.57-2.93-1.7-3.97c-1.13-1.03-2.58-1.55-4.34-1.55Z"/>
    <path class="cls-2" d="M457.87,190.17c-3.25-1.79-6.96-2.68-11.14-2.68s-7.81,.89-11.03,2.68c-3.22,1.79-5.77,4.22-7.63,7.29-1.86,3.07-2.79,6.65-2.79,10.73s.93,7.53,2.79,10.65c1.86,3.12,4.42,5.58,7.67,7.37,3.25,1.79,6.91,2.68,10.99,2.68s7.83-.89,11.11-2.68c3.27-1.79,5.83-4.23,7.67-7.33,1.84-3.1,2.76-6.66,2.76-10.69s-.92-7.65-2.76-10.73c-1.84-3.07-4.38-5.5-7.63-7.29Zm-.68,24.7c-1.03,1.94-2.46,3.43-4.27,4.46-1.81,1.03-3.88,1.55-6.2,1.55s-4.23-.52-6.04-1.55c-1.81-1.03-3.25-2.52-4.31-4.46-1.06-1.94-1.59-4.17-1.59-6.69s.53-4.8,1.59-6.69,2.49-3.35,4.31-4.38c1.81-1.03,3.85-1.55,6.12-1.55s4.31,.52,6.12,1.55c1.81,1.03,3.24,2.49,4.27,4.38,1.03,1.89,1.55,4.12,1.55,6.69s-.52,4.75-1.55,6.69Z"/>
    <path class="cls-2" d="M508.86,189.37c-2.49-1.26-5.38-1.89-8.65-1.89-3.53,0-6.64,.71-9.33,2.12-1.8,.94-3.29,2.15-4.5,3.6v-5.19h-8.99v40.34h9.37v-20.4c0-2.72,.46-4.97,1.4-6.76,.93-1.79,2.25-3.14,3.97-4.04,1.71-.91,3.68-1.36,5.89-1.36,3.07,0,5.44,.88,7.1,2.64,1.66,1.76,2.49,4.43,2.49,8.01v21.91h9.44v-23.12c0-4.08-.74-7.43-2.23-10.05-1.49-2.62-3.47-4.56-5.97-5.82Z"/>
  </g>
  <g>
    <polygon points="151.26 127.51 121.42 127.51 121.42 113.01 146.95 113.01 146.95 104.93 121.42 104.93 121.42 91.25 150.2 91.25 150.2 82.94 111.59 82.94 111.59 135.82 151.26 135.82 151.26 127.51"/>
    <path d="M220.87,96.84c-2.49-1.26-5.35-1.89-8.57-1.89-3.98,0-7.48,.93-10.5,2.79-1.85,1.14-3.37,2.5-4.56,4.06-.96-1.66-2.21-3.02-3.75-4.06-2.77-1.86-6.04-2.79-9.82-2.79-3.38,0-6.36,.71-8.95,2.12-1.68,.92-3.1,2.08-4.27,3.48v-5.07h-8.99v40.34h9.37v-20.47c0-2.67,.44-4.9,1.32-6.69,.88-1.79,2.12-3.14,3.7-4.04s3.41-1.36,5.48-1.36c2.92,0,5.17,.88,6.76,2.64,1.59,1.76,2.38,4.43,2.38,8.01v21.91h9.37v-20.47c0-2.67,.44-4.9,1.32-6.69,.88-1.79,2.12-3.14,3.7-4.04s3.41-1.36,5.48-1.36c2.92,0,5.17,.88,6.76,2.64,1.59,1.76,2.38,4.43,2.38,8.01v21.91h9.37v-23.12c0-4.08-.71-7.43-2.12-10.05-1.41-2.62-3.36-4.56-5.85-5.82Z"/>
    <path d="M283.77,115.65c0-4.13-.89-7.76-2.68-10.88-1.79-3.12-4.22-5.54-7.29-7.25-3.07-1.71-6.57-2.57-10.5-2.57-3.38,0-6.42,.74-9.14,2.23-1.6,.87-2.98,2.03-4.15,3.44v-5.14h-8.99v55h9.37v-19.57c1.14,1.31,2.45,2.39,3.93,3.22,2.67,1.49,5.67,2.23,8.99,2.23,3.93,0,7.43-.86,10.5-2.57,3.07-1.71,5.5-4.12,7.29-7.21,1.79-3.1,2.68-6.74,2.68-10.92Zm-11.18,6.65c-1.06,1.91-2.48,3.4-4.27,4.46-1.79,1.06-3.84,1.59-6.16,1.59s-4.23-.53-6.04-1.59c-1.81-1.06-3.25-2.54-4.31-4.46-1.06-1.91-1.59-4.13-1.59-6.65s.53-4.8,1.59-6.69,2.49-3.35,4.31-4.38c1.81-1.03,3.83-1.55,6.04-1.55s4.37,.52,6.16,1.55c1.79,1.03,3.21,2.49,4.27,4.38s1.59,4.12,1.59,6.69-.53,4.73-1.59,6.65Z"/>
    <path d="M299.89,133.67c3.25,1.79,6.91,2.68,10.99,2.68s7.83-.89,11.11-2.68c3.27-1.79,5.83-4.23,7.67-7.33,1.84-3.1,2.76-6.66,2.76-10.69s-.92-7.65-2.76-10.73c-1.84-3.07-4.38-5.5-7.63-7.29-3.25-1.79-6.96-2.68-11.14-2.68s-7.81,.89-11.03,2.68c-3.22,1.79-5.77,4.22-7.63,7.29-1.86,3.07-2.8,6.65-2.8,10.73s.93,7.53,2.8,10.65c1.86,3.12,4.42,5.58,7.67,7.37Zm.64-24.7c1.06-1.89,2.49-3.35,4.31-4.38,1.81-1.03,3.85-1.55,6.12-1.55s4.31,.52,6.12,1.55c1.81,1.03,3.24,2.49,4.27,4.38,1.03,1.89,1.55,4.12,1.55,6.69s-.52,4.75-1.55,6.69c-1.03,1.94-2.46,3.43-4.27,4.46-1.81,1.03-3.88,1.55-6.2,1.55s-4.23-.52-6.04-1.55c-1.81-1.03-3.25-2.52-4.31-4.46-1.06-1.94-1.59-4.17-1.59-6.69s.53-4.8,1.59-6.69Z"/>
    <polygon points="383.95 125.29 373.06 95.48 365.13 95.48 354.03 125.19 343.37 95.48 334.46 95.48 349.26 135.82 358.33 135.82 368.96 107.93 379.33 135.82 388.4 135.82 403.28 95.48 394.89 95.48 383.95 125.29"/>
    <path d="M415.86,133.67c3.35,1.79,7.26,2.68,11.75,2.68,3.52,0,6.66-.55,9.41-1.66,2.75-1.11,5.05-2.72,6.91-4.83l-5.14-5.89c-1.41,1.46-3.02,2.57-4.83,3.32-1.81,.76-3.85,1.13-6.12,1.13-2.67,0-5.01-.52-7.03-1.55-2.02-1.03-3.56-2.48-4.65-4.34-.68-1.17-1.12-2.46-1.37-3.85h31.63c.05-.4,.09-.87,.11-1.4,.02-.53,.04-.97,.04-1.32,0-4.28-.88-7.98-2.64-11.11-1.76-3.12-4.18-5.55-7.25-7.29-3.07-1.74-6.57-2.61-10.5-2.61s-7.62,.89-10.77,2.68c-3.15,1.79-5.62,4.23-7.4,7.33-1.79,3.1-2.68,6.66-2.68,10.69s.92,7.59,2.76,10.69c1.84,3.1,4.43,5.54,7.78,7.33Zm.11-25.35c.96-1.81,2.33-3.21,4.12-4.19,1.79-.98,3.81-1.47,6.08-1.47s4.33,.49,6.04,1.47c1.71,.98,3.06,2.37,4.04,4.16,.69,1.25,1.11,2.63,1.29,4.12h-22.84c.21-1.48,.62-2.85,1.27-4.08Z"/>
    <path d="M477.84,103.83c.35,.03,.7,.06,1.06,.11v-8.99c-3.78,0-6.98,.72-9.59,2.15-1.94,1.06-3.47,2.48-4.61,4.24v-5.86h-8.99v40.34h9.37v-19.49c0-4.23,1.06-7.38,3.17-9.44,2.12-2.06,4.99-3.1,8.61-3.1,.3,0,.63,.01,.98,.04Z"/>
    <path d="M491.37,88.83c1.81,0,3.27-.57,4.38-1.7,1.11-1.13,1.66-2.5,1.66-4.12s-.57-2.93-1.7-3.97c-1.13-1.03-2.58-1.55-4.34-1.55s-3.21,.55-4.34,1.66c-1.13,1.11-1.7,2.42-1.7,3.93,0,1.61,.57,2.97,1.7,4.08,1.13,1.11,2.58,1.66,4.34,1.66Z"/>
    <rect x="486.68" y="95.48" width="9.37" height="40.34"/>
    <path d="M540.06,96.84c-2.49-1.26-5.38-1.89-8.65-1.89-3.53,0-6.64,.71-9.33,2.12-1.8,.94-3.29,2.15-4.5,3.6v-5.19h-8.99v40.34h9.37v-20.4c0-2.72,.46-4.97,1.4-6.76,.93-1.79,2.25-3.14,3.97-4.04,1.71-.91,3.68-1.36,5.89-1.36,3.07,0,5.44,.88,7.1,2.64,1.66,1.76,2.49,4.43,2.49,8.01v21.91h9.44v-23.12c0-4.08-.74-7.43-2.23-10.05-1.49-2.62-3.47-4.56-5.97-5.82Z"/>
    <path d="M591.32,95.48v5.31c-1.33-1.58-2.89-2.84-4.72-3.76-2.75-1.38-5.83-2.08-9.25-2.08-3.88,0-7.35,.81-10.43,2.42-3.07,1.61-5.5,3.89-7.29,6.84-1.79,2.95-2.68,6.38-2.68,10.31s.89,7.28,2.68,10.2c1.79,2.92,4.22,5.2,7.29,6.84,3.07,1.64,6.55,2.46,10.43,2.46,3.42,0,6.51-.71,9.25-2.12,1.62-.83,3.04-1.93,4.27-3.27v2.14c0,4.13-1.03,7.21-3.1,9.25-2.07,2.04-5.29,3.06-9.67,3.06-2.87,0-5.64-.45-8.31-1.36-2.67-.91-4.89-2.09-6.65-3.55l-4.23,7.03c2.32,1.91,5.22,3.36,8.73,4.34,3.5,.98,7.14,1.47,10.92,1.47,7.05,0,12.44-1.73,16.17-5.17,3.73-3.45,5.59-8.83,5.59-16.13v-34.22h-8.99Zm-1.85,24.97c-1.03,1.74-2.48,3.1-4.34,4.08-1.86,.98-3.98,1.47-6.35,1.47s-4.5-.49-6.38-1.47c-1.89-.98-3.35-2.34-4.38-4.08-1.03-1.74-1.55-3.71-1.55-5.93s.52-4.33,1.55-6.04c1.03-1.71,2.49-3.05,4.38-4,1.89-.96,4.02-1.44,6.38-1.44s4.48,.48,6.35,1.44c1.86,.96,3.31,2.29,4.34,4,1.03,1.71,1.55,3.73,1.55,6.04s-.52,4.19-1.55,5.93Z"/>
    <rect x="111.59" y="173.6" width="9.82" height="52.88"/>
    <path d="M166.25,187.5c-2.49-1.26-5.38-1.89-8.65-1.89-3.53,0-6.64,.71-9.33,2.12-1.8,.94-3.29,2.15-4.5,3.6v-5.19h-8.99v40.34h9.37v-20.4c0-2.72,.47-4.97,1.4-6.76,.93-1.79,2.25-3.14,3.97-4.04,1.71-.91,3.68-1.36,5.89-1.36,3.07,0,5.44,.88,7.1,2.64,1.66,1.76,2.49,4.43,2.49,8.01v21.91h9.44v-23.12c0-4.08-.74-7.43-2.23-10.05-1.49-2.62-3.48-4.56-5.97-5.82Z"/>
    <path d="M218,187.5c-2.49-1.26-5.38-1.89-8.65-1.89-3.53,0-6.64,.71-9.33,2.12-1.8,.94-3.29,2.15-4.5,3.6v-5.19h-8.99v40.34h9.37v-20.4c0-2.72,.47-4.97,1.4-6.76,.93-1.79,2.25-3.14,3.97-4.04,1.71-.91,3.68-1.36,5.89-1.36,3.07,0,5.44,.88,7.1,2.64,1.66,1.76,2.49,4.43,2.49,8.01v21.91h9.44v-23.12c0-4.08-.74-7.43-2.23-10.05-1.49-2.62-3.48-4.56-5.97-5.82Z"/>
    <path d="M267.49,188.29c-3.25-1.79-6.96-2.68-11.14-2.68s-7.81,.89-11.03,2.68c-3.22,1.79-5.77,4.22-7.63,7.29-1.86,3.07-2.8,6.65-2.8,10.73s.93,7.53,2.8,10.65c1.86,3.12,4.42,5.58,7.67,7.37,3.25,1.79,6.91,2.68,10.99,2.68s7.83-.89,11.11-2.68c3.27-1.79,5.83-4.23,7.67-7.33,1.84-3.1,2.76-6.66,2.76-10.69s-.92-7.65-2.76-10.73c-1.84-3.07-4.38-5.5-7.63-7.29Zm-.68,24.7c-1.03,1.94-2.46,3.43-4.27,4.46-1.81,1.03-3.88,1.55-6.19,1.55s-4.23-.52-6.04-1.55c-1.81-1.03-3.25-2.52-4.31-4.46-1.06-1.94-1.59-4.17-1.59-6.69s.53-4.8,1.59-6.69c1.06-1.89,2.49-3.35,4.31-4.38,1.81-1.03,3.85-1.55,6.12-1.55s4.31,.52,6.12,1.55c1.81,1.03,3.24,2.49,4.27,4.38,1.03,1.89,1.55,4.12,1.55,6.69s-.52,4.75-1.55,6.69Z"/>
    <polygon points="301.55 216.06 288.98 186.14 279.23 186.14 296.53 226.48 306.28 226.48 323.58 186.14 314.51 186.14 301.55 216.06"/>
    <path d="M343.75,185.61c-3.22,0-6.32,.43-9.29,1.28-2.97,.86-5.57,2.12-7.78,3.78l3.7,6.88c1.56-1.26,3.42-2.24,5.59-2.95,2.17-.71,4.36-1.06,6.57-1.06,3.42,0,5.98,.77,7.67,2.3,1.69,1.54,2.53,3.69,2.53,6.46v.6h-10.5c-4.08,0-7.35,.53-9.82,1.59-2.47,1.06-4.24,2.49-5.33,4.31-1.08,1.81-1.62,3.85-1.62,6.12s.62,4.39,1.85,6.23c1.23,1.84,2.98,3.27,5.25,4.31s4.91,1.55,7.93,1.55c3.63,0,6.6-.65,8.91-1.96,1.6-.9,2.85-2.06,3.78-3.47v4.9h8.92v-23.65c0-5.84-1.59-10.17-4.76-12.99-3.17-2.82-7.71-4.23-13.6-4.23Zm4.95,32.94c-1.84,1.06-3.92,1.59-6.23,1.59s-4.31-.5-5.67-1.51c-1.36-1.01-2.04-2.34-2.04-4,0-1.56,.57-2.86,1.7-3.89,1.13-1.03,3.29-1.55,6.46-1.55h9.82v4.68c-.86,2.07-2.2,3.63-4.04,4.68Z"/>
    <path d="M390.51,219.23c-1.81,0-3.22-.53-4.23-1.59-1.01-1.06-1.51-2.54-1.51-4.46v-19.49h10.88v-7.55h-10.88v-8.91h-9.37v8.91h-6.65v7.55h6.65v19.79c0,4.43,1.21,7.79,3.63,10.09,2.42,2.29,5.84,3.44,10.27,3.44,1.66,0,3.3-.23,4.91-.68,1.61-.45,3-1.13,4.15-2.04l-2.72-6.72c-1.36,1.11-3.07,1.66-5.14,1.66Z"/>
    <rect x="406.23" y="186.14" width="9.37" height="40.34"/>
    <path d="M410.91,168.16c-1.76,0-3.21,.55-4.34,1.66-1.13,1.11-1.7,2.42-1.7,3.93,0,1.61,.57,2.97,1.7,4.08,1.13,1.11,2.58,1.66,4.34,1.66s3.27-.57,4.38-1.7c1.11-1.13,1.66-2.5,1.66-4.12s-.57-2.93-1.7-3.97c-1.13-1.03-2.58-1.55-4.34-1.55Z"/>
    <path d="M457.33,188.29c-3.25-1.79-6.96-2.68-11.14-2.68s-7.81,.89-11.03,2.68c-3.22,1.79-5.77,4.22-7.63,7.29-1.86,3.07-2.79,6.65-2.79,10.73s.93,7.53,2.79,10.65c1.86,3.12,4.42,5.58,7.67,7.37,3.25,1.79,6.91,2.68,10.99,2.68s7.83-.89,11.11-2.68c3.27-1.79,5.83-4.23,7.67-7.33,1.84-3.1,2.76-6.66,2.76-10.69s-.92-7.65-2.76-10.73c-1.84-3.07-4.38-5.5-7.63-7.29Zm-.68,24.7c-1.03,1.94-2.46,3.43-4.27,4.46-1.81,1.03-3.88,1.55-6.2,1.55s-4.23-.52-6.04-1.55c-1.81-1.03-3.25-2.52-4.31-4.46-1.06-1.94-1.59-4.17-1.59-6.69s.53-4.8,1.59-6.69,2.49-3.35,4.31-4.38c1.81-1.03,3.85-1.55,6.12-1.55s4.31,.52,6.12,1.55c1.81,1.03,3.24,2.49,4.27,4.38,1.03,1.89,1.55,4.12,1.55,6.69s-.52,4.75-1.55,6.69Z"/>
    <path d="M508.33,187.5c-2.49-1.26-5.38-1.89-8.65-1.89-3.53,0-6.64,.71-9.33,2.12-1.8,.94-3.29,2.15-4.5,3.6v-5.19h-8.99v40.34h9.37v-20.4c0-2.72,.46-4.97,1.4-6.76,.93-1.79,2.25-3.14,3.97-4.04,1.71-.91,3.68-1.36,5.89-1.36,3.07,0,5.44,.88,7.1,2.64,1.66,1.76,2.49,4.43,2.49,8.01v21.91h9.44v-23.12c0-4.08-.74-7.43-2.23-10.05-1.49-2.62-3.47-4.56-5.97-5.82Z"/>
  </g>
</svg>