<?xml version="1.0" encoding="UTF-8"?>
<svg id="Layer_1" data-name="Layer 1" xmlns="http://www.w3.org/2000/svg" viewBox="0 0 1080 1080">
  <defs>
    <style>
      .cls-1 {
        letter-spacing: -.02em;
      }

      .cls-2, .cls-3 {
        fill: #fff;
      }

      .cls-4 {
        fill: #a54fbe;
      }

      .cls-5 {
        fill: #294df0;
      }

      .cls-6 {
        letter-spacing: -.01em;
      }

      .cls-3 {
        font-family: Montserrat-Bold, Montserrat;
        font-size: 29.92px;
        font-variation-settings: 'wght' 700;
        font-weight: 700;
      }

      .cls-7 {
        letter-spacing: -.03em;
      }

      .cls-8 {
        letter-spacing: -.02em;
      }

      .cls-9 {
        letter-spacing: 0em;
      }

      .cls-10 {
        letter-spacing: 0em;
      }

      .cls-11 {
        letter-spacing: 0em;
      }

      .cls-12 {
        letter-spacing: 0em;
      }
    </style>
  </defs>
  <rect width="1080" height="1080"/>
  <g>
    <g>
      <polygon class="cls-2" points="555.79 417.34 508.26 417.34 448.91 481.03 448.91 417.34 406.21 417.34 406.21 570.64 448.91 570.64 448.91 532.24 465.01 514.99 508.92 570.64 559.29 570.64 493.51 485.26 555.79 417.34"/>
      <polygon class="cls-2" points="730.55 444.72 730.55 417.34 598.49 417.34 598.49 451.72 673.68 451.72 596.74 543.27 596.74 570.64 733.83 570.64 733.83 536.26 653.42 536.26 730.55 444.72"/>
      <polygon class="cls-2" points="889.54 417.34 889.54 498.98 822.08 417.34 786.39 417.34 786.39 570.64 828.66 570.64 828.66 488.95 896.33 570.64 932.02 570.64 932.02 417.34 889.54 417.34"/>
    </g>
    <g>
      <polygon class="cls-5" points="401.5 620.68 414.66 620.68 414.66 653.91 426.78 653.91 426.78 620.68 439.88 620.68 439.88 611.07 401.5 611.07 401.5 620.68"/>
      <polygon class="cls-5" points="456.41 636.65 475.44 636.65 475.44 627.66 456.41 627.66 456.41 620.49 478.01 620.49 478.01 611.07 444.47 611.07 444.47 653.91 478.81 653.91 478.81 644.49 456.41 644.49 456.41 636.65"/>
      <path class="cls-5" d="M498.61,623.59c1.04-1.08,2.29-1.91,3.76-2.48,1.47-.57,3.08-.86,4.84-.86,2,0,3.83,.43,5.51,1.29,1.67,.86,3.2,2.1,4.59,3.73l7.71-6.98c-2.08-2.65-4.68-4.66-7.8-6.03s-6.66-2.05-10.62-2.05c-3.39,0-6.51,.54-9.36,1.62-2.86,1.08-5.35,2.61-7.47,4.59-2.12,1.98-3.77,4.34-4.96,7.07-1.18,2.73-1.78,5.73-1.78,9s.59,6.26,1.78,9c1.18,2.73,2.83,5.09,4.96,7.07,2.12,1.98,4.61,3.51,7.47,4.59,2.86,1.08,5.98,1.62,9.36,1.62,3.96,0,7.5-.69,10.62-2.08,3.12-1.39,5.72-3.41,7.8-6.06l-7.71-6.98c-1.39,1.67-2.92,2.94-4.59,3.79-1.67,.86-3.51,1.29-5.51,1.29-1.75,0-3.37-.29-4.84-.86-1.47-.57-2.72-1.4-3.76-2.48-1.04-1.08-1.86-2.38-2.45-3.89-.59-1.51-.89-3.18-.89-5.02s.3-3.51,.89-5.02c.59-1.51,1.41-2.8,2.45-3.89Z"/>
      <polygon class="cls-5" points="558.56 627.17 542.09 627.17 542.09 611.07 529.98 611.07 529.98 653.91 542.09 653.91 542.09 637.2 558.56 637.2 558.56 653.91 570.68 653.91 570.68 611.07 558.56 611.07 558.56 627.17"/>
      <polygon class="cls-4" points="626.4 628.02 609.94 628.02 609.94 611.92 597.82 611.92 597.82 654.77 609.94 654.77 609.94 638.06 626.4 638.06 626.4 654.77 638.52 654.77 638.52 611.92 626.4 611.92 626.4 628.02"/>
      <path class="cls-4" d="M735.2,636.16c1.53-2.33,2.29-5.14,2.29-8.45,0-4.9-1.67-8.75-5.02-11.57-3.35-2.82-8.16-4.22-14.45-4.22h-19.1v42.84h12.12v-11.38h6.55l7.77,11.38h12.97l-9.25-13.48c2.62-1.23,4.66-2.94,6.1-5.13Zm-11.78-13.01c1.26,1.12,1.9,2.64,1.9,4.56s-.63,3.55-1.9,4.65c-1.27,1.1-3.16,1.65-5.69,1.65h-6.67v-12.55h6.67c2.53,0,4.43,.56,5.69,1.68Z"/>
      <rect class="cls-4" x="744.22" y="611.92" width="12.12" height="42.84"/>
      <polygon class="cls-4" points="800.23 619.58 800.23 611.92 763.32 611.92 763.32 621.53 784.33 621.53 762.83 647.12 762.83 654.77 801.15 654.77 801.15 645.16 778.67 645.16 800.23 619.58"/>
      <polygon class="cls-4" points="886.53 634.74 867.67 611.92 857.7 611.92 857.7 654.77 869.51 654.77 869.51 631.94 888.42 654.77 898.4 654.77 898.4 611.92 886.53 611.92 886.53 634.74"/>
      <path class="cls-4" d="M939.71,636.19c-.9-1.49-2.07-2.69-3.52-3.61-1.45-.92-3.03-1.65-4.74-2.2-1.71-.55-3.44-1.01-5.17-1.38s-3.32-.72-4.74-1.07-2.59-.8-3.49-1.35c-.9-.55-1.35-1.32-1.35-2.29,0-.65,.22-1.26,.67-1.84,.45-.57,1.18-1.04,2.2-1.41s2.37-.55,4.04-.55c1.88,0,3.81,.27,5.81,.8,2,.53,4.02,1.37,6.06,2.51l3.67-8.94c-2.08-1.26-4.48-2.21-7.19-2.85-2.71-.63-5.48-.95-8.29-.95-4.2,0-7.71,.63-10.53,1.9s-4.92,2.94-6.3,5.02-2.08,4.39-2.08,6.92c0,2.29,.44,4.18,1.31,5.69,.88,1.51,2.03,2.73,3.46,3.67s3.02,1.69,4.77,2.26,3.48,1.03,5.17,1.38,3.27,.71,4.71,1.1c1.45,.39,2.62,.86,3.52,1.41,.9,.55,1.35,1.3,1.35,2.23,0,.73-.24,1.37-.71,1.9-.47,.53-1.2,.94-2.2,1.22-1,.29-2.36,.43-4.07,.43-2.49,0-4.99-.4-7.5-1.19-2.51-.79-4.72-1.81-6.64-3.03l-3.98,9c2,1.35,4.62,2.46,7.87,3.34s6.64,1.32,10.19,1.32c4.24,0,7.77-.63,10.59-1.9,2.82-1.26,4.93-2.95,6.34-5.05s2.11-4.4,2.11-6.89c0-2.24-.45-4.11-1.35-5.6Z"/>
    </g>
    <rect class="cls-2" x="356.84" y="409.63" width="18.42" height="260.73"/>
    <g>
      <path class="cls-4" d="M204.54,564.53c-1.15-1.13-1.16-2.41-1.16-3.69-.03-12.62-.07-25.25-.06-37.87,0-4.34,.7-8.62,2.07-12.72,4.87-14.54,15.13-22.89,30.06-25.62,3.29-.6,6.65-.79,10.02-.75,14.86,.21,29.71,.33,44.57,.49,2.72,.03,5.4,.17,8.07,.89,9.85,2.67,15.41,9.18,17.24,19.05,.38,2.03,.56,4.13,.58,6.2,.17,15.98,.43,31.96,.34,47.93-.06,10.65-3.8,20-11.51,27.55-6.79,6.65-15.05,10.06-24.45,10.79-1.75,.14-3.51,.11-5.27,.11-11.34,0-22.69,0-34.03,0-1.43,0-2.87-.04-4.3-.14-.79-.06-1.34-1.18-.93-1.83,.34-.53,.71-1.06,1.16-1.5,5.26-5.13,10.57-10.22,15.8-15.37,1.7-1.68,3.61-2.44,6.01-2.4,5.75,.1,11.5,.09,17.26,.08,2.07,0,4.13-.09,6.17-.64,7.61-2.07,12.27-7.55,12.9-15.39,.11-1.43,.09-2.87,.08-4.31-.09-14.38-.18-28.76-.3-43.14-.05-6.06-.83-6.82-6.99-6.85-14.38-.06-28.76-.1-43.14-.12-1.75,0-3.52,.04-5.26,.23-7.07,.79-12.46,5.48-14.23,12.37-.56,2.17-.9,4.37-.86,6.63,.1,5.27,.02,10.55,.23,15.81,.13,3.25-.72,5.79-3.19,8.08-4.57,4.23-8.85,8.77-13.28,13.15-1.11,1.1-2.12,2.36-3.58,2.98Z"/>
      <path class="cls-5" d="M250.98,513.83c.81,.47,.63,1.18,.64,1.78,.1,10.71,.2,21.42,.25,32.13,.02,4.32-.23,8.62-.67,12.92-1.41,13.83-8.91,23.25-21.07,29.3-4.8,2.39-9.98,3.43-15.29,3.53-16.94,.34-33.89,.21-50.83-.14-3.03-.06-6.06-.39-8.95-1.45-8.37-3.07-13.34-9.05-15.06-17.74-.37-1.87-.47-3.81-.53-5.72-.52-16.78-.66-33.57-.4-50.35,.26-17.35,12.28-31.98,29.18-35.88,3.74-.86,7.57-1.22,11.41-1.34,13.11-.4,26.21,.21,39.31,.5,.28,0,.55,.27,.82,.41,.03,.91-.69,1.36-1.22,1.89-5.32,5.3-10.7,10.55-15.96,15.92-1.58,1.61-3.28,2.29-5.52,2.24-5.75-.12-11.51-.07-17.26-.08-1.76,0-3.49,.11-5.24,.43-9.48,1.77-14.54,9.03-14.65,17.54-.06,4.32-.03,8.63-.01,12.95,.04,10.71,.09,21.42,.17,32.13,.01,1.43,.11,2.87,.33,4.29,.27,1.76,1.38,2.86,3.15,3.14,.94,.15,1.91,.2,2.86,.21,15.02,.1,30.05,.2,45.07,.24,1.9,0,3.83-.21,5.71-.56,6.2-1.16,10.33-4.92,12.42-10.75,1.18-3.3,1.63-6.72,.91-10.35-1.87-9.35,.36-17.74,6.65-24.99,3.79-4.36,8.06-8.2,12.64-11.71,.34-.26,.81-.35,1.15-.49Z"/>
    </g>
    <path class="cls-4" d="M668.56,653.55c-11.62,.08-21.1-9.25-21.15-20.82-.05-11.52,9.49-21.15,21-20.99,11.91,.16,20.74,9.24,20.86,20.61,.14,13.25-10.66,21.28-20.72,21.21Zm-2.58-9.88c2.46-6.63,4.8-12.84,7.05-19.09,.22-.61,.09-1.64-.31-2.11-.39-.45-1.33-.41-1.96-.56-2.41,4.86-6.84,17.31-7.43,20.86,.69,.23,1.41,.48,2.66,.9Zm10.36-5.22c1.66-.75,2.83-1.25,3.98-1.78,1.74-.8,3.51-1.54,5.19-2.45,1.55-.84,1.55-3.03-.02-3.85-2.93-1.52-5.91-2.98-9.31-4.13-.43,1.07-.75,1.87-1.1,2.76,2.17,1.06,4.1,2.01,6.54,3.21-2.51,1.36-4.54,2.46-6.72,3.64,.52,.94,.88,1.6,1.44,2.61Zm-21.29-6.25c2.72-1.34,4.67-2.29,6.89-3.39-.69-1.05-1.16-1.77-1.73-2.63-2.97,1.36-5.71,2.62-8.47,3.87-1.65,.75-1.93,1.95-1.14,3.84,2.99,1.53,6.23,3.14,9.67,4.35,.44-.52,.82-.83,1.01-1.23,.18-.39,.16-.87,.26-1.44-1.99-1.03-3.93-2.03-6.5-3.37Z"/>
    <path class="cls-4" d="M847.9,654.46h-6.25c.08-1.42,.21-2.63,.19-3.84-.07-5.69-4.16-10.73-9.47-11.74-5.92-1.13-11.44,1.8-13.55,7.32-.5,1.31-.65,2.78-.8,4.2-.13,1.23-.03,2.49-.03,3.88-2.23,.56-4.23,.56-6.19,.07-2.11-6.76,.41-14.14,6.32-18.79,6.17-4.85,14.89-5.37,21.6-1.29,6.98,4.24,9.78,10.94,8.16,20.2Z"/>
    <path class="cls-4" d="M811.69,612.19h6.43c.5,.76,1.07,1.69,1.69,2.59,5.13,7.46,14.94,7.5,20.1,.07,.54-.78,.97-1.65,1.54-2.63,1.03-.08,2.13-.21,3.22-.22,1.09-.01,2.19,.1,3.46,.16-.22,4.33-2.44,7.39-5.22,10.06-3.47,3.33-7.67,5.09-12.53,5.18-9.45,.18-17.58-6.34-18.7-15.21Z"/>
  </g>
  <text class="cls-3" transform="translate(138.2 747.13)"><tspan x="0" y="0">Emp</tspan><tspan class="cls-6" x="72.13" y="0">ow</tspan><tspan x="118.84" y="0">e</tspan><tspan class="cls-11" x="137.72" y="0">r</tspan><tspan class="cls-10" x="150.31" y="0">ing Inn</tspan><tspan class="cls-6" x="260.44" y="0">ov</tspan><tspan x="297.03" y="0">ation, </tspan><tspan class="cls-7" x="394.09" y="0">C</tspan><tspan class="cls-9" x="414.97" y="0">onne</tspan><tspan class="cls-12" x="494.74" y="0">c</tspan><tspan x="512.6" y="0">ting </tspan><tspan class="cls-8" x="584.67" y="0">C</tspan><tspan x="605.56" y="0">ommun</tspan><tspan class="cls-1" x="729.09" y="0">i</tspan><tspan class="cls-10" x="737.5" y="0">ties.</tspan></text>
</svg>