<?xml version="1.0" encoding="UTF-8"?>
<svg id="Layer_1" data-name="Layer 1" xmlns="http://www.w3.org/2000/svg" viewBox="0 0 1566.69 382.24">
  <defs>
    <style>
      .cls-1 {
        fill: #fff;
      }

      .cls-2 {
        fill: #a54fbe;
      }

      .cls-3 {
        fill: #294df0;
      }
    </style>
  </defs>
  <g>
    <g>
      <polygon class="cls-1" points="948.66 0 872.43 0 777.22 102.16 777.22 0 708.72 0 708.72 245.91 777.22 245.91 777.22 184.31 803.05 156.64 873.48 245.91 954.28 245.91 848.76 108.96 948.66 0"/>
      <polygon class="cls-1" points="1229 43.91 1229 0 1017.16 0 1017.16 55.15 1137.77 55.15 1014.35 202 1014.35 245.91 1234.27 245.91 1234.27 190.76 1105.28 190.76 1229 43.91"/>
      <polygon class="cls-1" points="1484.04 0 1484.04 130.97 1375.84 0 1318.57 0 1318.57 245.91 1386.38 245.91 1386.38 114.86 1494.93 245.91 1552.19 245.91 1552.19 0 1484.04 0"/>
    </g>
    <g>
      <polygon class="cls-3" points="701.17 326.18 722.28 326.18 722.28 379.49 741.72 379.49 741.72 326.18 762.73 326.18 762.73 310.76 701.17 310.76 701.17 326.18"/>
      <polygon class="cls-3" points="789.24 351.81 819.77 351.81 819.77 337.37 789.24 337.37 789.24 325.88 823.9 325.88 823.9 310.76 770.09 310.76 770.09 379.49 825.17 379.49 825.17 364.37 789.24 364.37 789.24 351.81"/>
      <path class="cls-3" d="M856.94,330.84c1.67-1.73,3.68-3.06,6.04-3.98,2.36-.92,4.94-1.37,7.76-1.37,3.21,0,6.15,.69,8.84,2.06,2.68,1.37,5.14,3.37,7.36,5.99l12.37-11.19c-3.34-4.25-7.51-7.48-12.52-9.67s-10.69-3.29-17.03-3.29c-5.43,0-10.44,.87-15.02,2.6-4.58,1.73-8.58,4.19-11.98,7.36-3.4,3.18-6.05,6.96-7.95,11.34-1.9,4.39-2.85,9.2-2.85,14.43s.95,10.05,2.85,14.43c1.9,4.39,4.55,8.17,7.95,11.34,3.4,3.18,7.4,5.63,11.98,7.36,4.58,1.73,9.59,2.6,15.02,2.6,6.35,0,12.03-1.11,17.03-3.34,5.01-2.22,9.18-5.46,12.52-9.72l-12.37-11.19c-2.23,2.68-4.68,4.71-7.36,6.09-2.68,1.37-5.63,2.06-8.84,2.06-2.82,0-5.4-.46-7.76-1.38-2.36-.91-4.37-2.24-6.04-3.98-1.67-1.73-2.98-3.81-3.93-6.23-.95-2.42-1.42-5.11-1.42-8.05s.47-5.63,1.42-8.05c.95-2.42,2.26-4.5,3.93-6.23Z"/>
      <polygon class="cls-3" points="953.11 336.59 926.7 336.59 926.7 310.76 907.26 310.76 907.26 379.49 926.7 379.49 926.7 352.69 953.11 352.69 953.11 379.49 972.55 379.49 972.55 310.76 953.11 310.76 953.11 336.59"/>
      <polygon class="cls-2" points="1061.94 337.96 1035.53 337.96 1035.53 312.14 1016.09 312.14 1016.09 380.87 1035.53 380.87 1035.53 354.06 1061.94 354.06 1061.94 380.87 1081.38 380.87 1081.38 312.14 1061.94 312.14 1061.94 337.96"/>
      <path class="cls-2" d="M1236.46,351.02c2.46-3.73,3.68-8.25,3.68-13.55,0-7.85-2.68-14.04-8.05-18.56-5.37-4.52-13.09-6.78-23.17-6.78h-30.63v68.73h19.44v-18.26h10.51l12.46,18.26h20.81l-14.84-21.62c4.2-1.97,7.47-4.71,9.78-8.23Zm-18.9-20.86c2.03,1.8,3.04,4.24,3.04,7.32s-1.02,5.69-3.04,7.46c-2.03,1.77-5.08,2.65-9.13,2.65h-10.7v-20.13h10.7c4.06,0,7.1,.9,9.13,2.7Z"/>
      <rect class="cls-2" x="1250.94" y="312.14" width="19.44" height="68.73"/>
      <polygon class="cls-2" points="1340.77 324.41 1340.77 312.14 1281.57 312.14 1281.57 327.55 1315.28 327.55 1280.78 368.59 1280.78 380.87 1342.25 380.87 1342.25 365.45 1306.2 365.45 1340.77 324.41"/>
      <polygon class="cls-2" points="1479.21 348.74 1448.97 312.14 1432.96 312.14 1432.96 380.87 1451.91 380.87 1451.91 344.24 1482.25 380.87 1498.26 380.87 1498.26 312.14 1479.21 312.14 1479.21 348.74"/>
      <path class="cls-2" d="M1564.53,351.07c-1.44-2.39-3.32-4.32-5.64-5.79-2.32-1.47-4.86-2.65-7.61-3.53-2.75-.88-5.51-1.62-8.3-2.21s-5.32-1.16-7.61-1.72-4.16-1.28-5.6-2.16c-1.44-.88-2.16-2.11-2.16-3.68,0-1.05,.36-2.03,1.08-2.95,.72-.91,1.9-1.67,3.53-2.26s3.8-.88,6.48-.88c3.01,0,6.12,.43,9.33,1.28,3.21,.85,6.44,2.19,9.72,4.02l5.89-14.33c-3.34-2.03-7.18-3.55-11.54-4.57-4.35-1.01-8.79-1.52-13.3-1.52-6.74,0-12.37,1.02-16.89,3.04s-7.89,4.71-10.11,8.05-3.34,7.04-3.34,11.09c0,3.67,.7,6.71,2.11,9.13,1.41,2.42,3.26,4.39,5.55,5.89s4.84,2.72,7.66,3.63,5.58,1.65,8.3,2.21,5.24,1.15,7.56,1.77c2.32,.62,4.21,1.38,5.65,2.26,1.44,.88,2.16,2.08,2.16,3.58,0,1.18-.38,2.19-1.13,3.04-.75,.85-1.93,1.51-3.53,1.96-1.6,.46-3.78,.69-6.53,.69-3.99,0-8-.64-12.03-1.91-4.02-1.28-7.58-2.9-10.65-4.86l-6.38,14.43c3.21,2.16,7.41,3.94,12.62,5.35s10.65,2.11,16.35,2.11c6.81,0,12.47-1.02,16.98-3.04,4.52-2.03,7.9-4.73,10.16-8.1s3.39-7.05,3.39-11.05c0-3.6-.72-6.59-2.16-8.98Z"/>
    </g>
    <path class="cls-2" d="M1129.57,378.91c-18.64,.13-33.84-14.85-33.92-33.4-.08-18.48,15.22-33.92,33.69-33.68,19.1,.26,33.27,14.83,33.46,33.06,.23,21.25-17.09,34.14-33.23,34.02Zm-4.14-15.85c3.95-10.64,7.71-20.6,11.31-30.62,.35-.98,.14-2.64-.5-3.38-.62-.72-2.14-.65-3.15-.9-3.86,7.8-10.97,27.77-11.93,33.46,1.11,.38,2.26,.77,4.26,1.44Zm16.61-8.38c2.67-1.2,4.54-2.01,6.39-2.86,2.79-1.28,5.62-2.48,8.32-3.93,2.49-1.34,2.49-4.86-.03-6.17-4.71-2.44-9.48-4.79-14.93-6.63-.69,1.71-1.2,3-1.77,4.42,3.48,1.71,6.58,3.23,10.49,5.15-4.03,2.18-7.27,3.94-10.78,5.84,.84,1.51,1.42,2.57,2.31,4.19Zm-34.16-10.02c4.36-2.14,7.49-3.68,11.06-5.43-1.1-1.68-1.86-2.84-2.77-4.22-4.77,2.18-9.17,4.21-13.58,6.2-2.65,1.2-3.1,3.14-1.82,6.16,4.8,2.45,9.99,5.03,15.51,6.98,.7-.83,1.31-1.33,1.62-1.98,.29-.62,.26-1.39,.41-2.31-3.2-1.66-6.3-3.26-10.42-5.4Z"/>
    <path class="cls-2" d="M1417.25,380.37h-10.02c.12-2.28,.33-4.22,.31-6.16-.11-9.13-6.67-17.22-15.19-18.84-9.5-1.81-18.36,2.89-21.74,11.74-.8,2.1-1.05,4.46-1.28,6.73-.21,1.98-.04,3.99-.04,6.22-3.58,.9-6.78,.9-9.93,.12-3.38-10.84,.66-22.69,10.14-30.15,9.9-7.79,23.88-8.62,34.65-2.07,11.2,6.81,15.68,17.55,13.09,32.4Z"/>
    <path class="cls-2" d="M1359.16,312.56h10.32c.8,1.22,1.72,2.71,2.71,4.15,8.22,11.96,23.96,12.03,32.24,.12,.87-1.26,1.56-2.65,2.48-4.23,1.66-.12,3.41-.34,5.17-.36,1.76-.02,3.51,.16,5.55,.26-.35,6.95-3.91,11.85-8.37,16.13-5.56,5.35-12.31,8.16-20.1,8.31-15.16,.29-28.19-10.17-30-24.39Z"/>
  </g>
  <g>
    <path class="cls-2" d="M218.69,273.75c-3.75-3.69-3.78-7.88-3.79-12.06-.08-41.24-.23-82.49-.19-123.73,.01-14.19,2.28-28.17,6.77-41.57,15.91-47.5,49.42-74.79,98.21-83.72,10.75-1.97,21.72-2.59,32.74-2.44,48.54,.68,97.08,1.06,145.63,1.59,8.87,.1,17.66,.56,26.36,2.92,32.17,8.73,50.35,30,56.32,62.24,1.23,6.64,1.82,13.48,1.89,20.24,.54,52.2,1.42,104.41,1.1,156.61-.21,34.8-12.4,65.35-37.61,90.02-22.19,21.71-49.16,32.86-79.9,35.26-5.71,.45-11.48,.35-17.22,.35-37.07,.03-74.13,.03-111.2,0-4.69,0-9.38-.14-14.05-.47-2.58-.19-4.37-3.86-3.03-5.98,1.1-1.74,2.32-3.48,3.79-4.91,17.2-16.76,34.53-33.38,51.64-50.23,5.56-5.48,11.81-7.97,19.64-7.83,18.79,.34,37.59,.28,56.38,.28,6.77,0,13.49-.28,20.16-2.09,24.87-6.76,40.09-24.65,42.15-50.29,.37-4.67,.28-9.39,.25-14.09-.3-46.98-.58-93.97-.98-140.95-.17-19.79-2.71-22.29-22.85-22.37-46.98-.21-93.97-.33-140.95-.4-5.73,0-11.5,.12-17.19,.76-23.1,2.59-40.7,17.92-46.49,40.43-1.82,7.08-2.95,14.27-2.81,21.67,.33,17.22,.05,34.47,.75,51.67,.43,10.62-2.34,18.91-10.43,26.39-14.94,13.81-28.93,28.65-43.4,42.97-3.63,3.59-6.92,7.71-11.69,9.75Z"/>
    <path class="cls-3" d="M370.42,108.11c2.66,1.54,2.07,3.85,2.09,5.81,.33,34.99,.67,69.98,.83,104.98,.07,14.1-.75,28.17-2.19,42.22-4.62,45.18-29.12,75.95-68.85,95.73-15.68,7.8-32.61,11.19-49.97,11.54-55.35,1.12-110.71,.7-166.06-.46-9.91-.21-19.8-1.29-29.24-4.75-27.34-10.03-43.58-29.58-49.21-57.95-1.21-6.11-1.54-12.45-1.74-18.7-1.69-54.82-2.15-109.67-1.31-164.51C5.62,65.34,44.87,17.52,100.09,4.8,112.3,1.99,124.83,.82,137.37,.44c42.83-1.32,85.63,.69,128.44,1.62,.9,.02,1.78,.87,2.69,1.35,.09,2.97-2.25,4.43-4,6.17-17.38,17.33-34.95,34.49-52.14,52-5.16,5.26-10.72,7.48-18.04,7.33-18.79-.38-37.6-.22-56.4-.26-5.74-.01-11.41,.34-17.12,1.41-30.96,5.78-47.51,29.52-47.87,57.3-.18,14.1-.1,28.2-.05,42.31,.14,34.99,.3,69.99,.55,104.98,.03,4.67,.37,9.39,1.08,14,.89,5.76,4.5,9.33,10.31,10.25,3.08,.48,6.23,.66,9.34,.68,49.09,.32,98.17,.66,147.26,.79,6.22,.02,12.52-.67,18.64-1.82,20.25-3.8,33.76-16.07,40.58-35.11,3.86-10.78,5.33-21.96,2.96-33.82-6.11-30.56,1.17-57.97,21.74-81.65,12.38-14.25,26.35-26.8,41.3-38.27,1.11-.85,2.66-1.14,3.77-1.59Z"/>
  </g>
</svg>