<?xml version="1.0" encoding="UTF-8"?>
<svg id="Layer_1" data-name="Layer 1" xmlns="http://www.w3.org/2000/svg" viewBox="0 0 952.04 288.53">
  <defs>
    <style>
      .cls-1 {
        fill: #a54fbe;
      }

      .cls-2 {
        fill: #294df0;
      }
    </style>
  </defs>
  <g>
    <polygon points="555.79 35.51 508.26 35.51 448.91 99.2 448.91 35.51 406.21 35.51 406.21 188.81 448.91 188.81 448.91 150.41 465.01 133.16 508.92 188.81 559.29 188.81 493.51 103.43 555.79 35.51"/>
    <polygon points="730.55 62.89 730.55 35.51 598.49 35.51 598.49 69.89 673.68 69.89 596.74 161.44 596.74 188.81 733.83 188.81 733.83 154.43 653.42 154.43 730.55 62.89"/>
    <polygon points="889.54 35.51 889.54 117.15 822.08 35.51 786.39 35.51 786.39 188.81 828.66 188.81 828.66 107.12 896.33 188.81 932.02 188.81 932.02 35.51 889.54 35.51"/>
  </g>
  <g>
    <polygon class="cls-2" points="401.5 238.85 414.66 238.85 414.66 272.08 426.78 272.08 426.78 238.85 439.88 238.85 439.88 229.24 401.5 229.24 401.5 238.85"/>
    <polygon class="cls-2" points="456.41 254.82 475.44 254.82 475.44 245.83 456.41 245.83 456.41 238.66 478.01 238.66 478.01 229.24 444.47 229.24 444.47 272.08 478.81 272.08 478.81 262.66 456.41 262.66 456.41 254.82"/>
    <path class="cls-2" d="M498.61,241.76c1.04-1.08,2.29-1.91,3.76-2.48s3.08-.86,4.84-.86c2,0,3.83,.43,5.51,1.29,1.67,.86,3.2,2.1,4.59,3.73l7.71-6.98c-2.08-2.65-4.68-4.66-7.8-6.03s-6.66-2.05-10.62-2.05c-3.39,0-6.51,.54-9.36,1.62-2.86,1.08-5.35,2.61-7.47,4.59-2.12,1.98-3.77,4.34-4.96,7.07-1.18,2.73-1.78,5.73-1.78,9s.59,6.26,1.78,9c1.18,2.73,2.83,5.09,4.96,7.07,2.12,1.98,4.61,3.51,7.47,4.59,2.86,1.08,5.98,1.62,9.36,1.62,3.96,0,7.5-.69,10.62-2.08s5.72-3.41,7.8-6.06l-7.71-6.98c-1.39,1.67-2.92,2.94-4.59,3.79-1.67,.86-3.51,1.29-5.51,1.29-1.75,0-3.37-.29-4.84-.86s-2.72-1.4-3.76-2.48c-1.04-1.08-1.86-2.38-2.45-3.89-.59-1.51-.89-3.18-.89-5.02s.3-3.51,.89-5.02c.59-1.51,1.41-2.8,2.45-3.89v.02Z"/>
    <polygon class="cls-2" points="558.56 245.34 542.09 245.34 542.09 229.24 529.98 229.24 529.98 272.08 542.09 272.08 542.09 255.37 558.56 255.37 558.56 272.08 570.68 272.08 570.68 229.24 558.56 229.24 558.56 245.34"/>
    <polygon class="cls-1" points="626.4 246.19 609.94 246.19 609.94 230.09 597.82 230.09 597.82 272.94 609.94 272.94 609.94 256.23 626.4 256.23 626.4 272.94 638.52 272.94 638.52 230.09 626.4 230.09 626.4 246.19"/>
    <path class="cls-1" d="M735.2,254.33c1.53-2.33,2.29-5.14,2.29-8.45,0-4.9-1.67-8.75-5.02-11.57-3.35-2.82-8.16-4.22-14.45-4.22h-19.1v42.84h12.12v-11.38h6.55l7.77,11.38h12.97l-9.25-13.48c2.62-1.23,4.66-2.94,6.1-5.13h.02Zm-11.78-13c1.26,1.12,1.9,2.64,1.9,4.56s-.63,3.55-1.9,4.65c-1.27,1.1-3.16,1.65-5.69,1.65h-6.67v-12.55h6.67c2.53,0,4.43,.56,5.69,1.68h0Z"/>
    <rect class="cls-1" x="744.22" y="230.09" width="12.12" height="42.84"/>
    <polygon class="cls-1" points="800.23 237.75 800.23 230.09 763.32 230.09 763.32 239.7 784.33 239.7 762.83 265.29 762.83 272.94 801.15 272.94 801.15 263.33 778.67 263.33 800.23 237.75"/>
    <polygon class="cls-1" points="886.53 252.91 867.67 230.09 857.7 230.09 857.7 272.94 869.51 272.94 869.51 250.11 888.42 272.94 898.4 272.94 898.4 230.09 886.53 230.09 886.53 252.91"/>
    <path class="cls-1" d="M939.71,254.36c-.9-1.49-2.07-2.69-3.52-3.61s-3.03-1.65-4.74-2.2c-1.71-.55-3.44-1.01-5.17-1.38s-3.32-.72-4.74-1.07-2.59-.8-3.49-1.35c-.9-.55-1.35-1.32-1.35-2.29,0-.65,.22-1.26,.67-1.84,.45-.57,1.18-1.04,2.2-1.41s2.37-.55,4.04-.55c1.88,0,3.81,.27,5.81,.8,2,.53,4.02,1.37,6.06,2.51l3.67-8.94c-2.08-1.26-4.48-2.21-7.19-2.85-2.71-.63-5.48-.95-8.29-.95-4.2,0-7.71,.63-10.53,1.9s-4.92,2.94-6.3,5.02-2.08,4.39-2.08,6.92c0,2.29,.44,4.18,1.31,5.69,.88,1.51,2.03,2.73,3.46,3.67s3.02,1.69,4.77,2.26,3.48,1.03,5.17,1.38,3.27,.71,4.71,1.1c1.45,.39,2.62,.86,3.52,1.41s1.35,1.3,1.35,2.23c0,.73-.24,1.37-.71,1.9-.47,.53-1.2,.94-2.2,1.22-1,.29-2.36,.43-4.07,.43-2.49,0-4.99-.4-7.5-1.19s-4.72-1.81-6.64-3.03l-3.98,9c2,1.35,4.62,2.46,7.87,3.34s6.64,1.32,10.19,1.32c4.24,0,7.77-.63,10.59-1.9,2.82-1.26,4.93-2.95,6.34-5.05s2.11-4.4,2.11-6.89c0-2.24-.45-4.11-1.35-5.6h0Z"/>
  </g>
  <g>
    <path class="cls-1" d="M149.55,200.63c-2.4-2.36-2.42-5.03-2.42-7.7-.06-26.33-.15-52.67-.13-79,0-9.05,1.46-17.98,4.32-26.53,10.16-30.33,31.56-47.75,62.71-53.44,6.86-1.25,13.87-1.65,20.9-1.56,31,.44,61.98,.69,92.97,1.02,5.67,.06,11.26,.35,16.83,1.86,20.55,5.57,32.15,19.15,35.96,39.74,.79,4.23,1.17,8.62,1.21,12.93,.35,33.33,.9,66.67,.71,99.98-.13,22.22-7.93,41.72-24.01,57.47-14.16,13.87-31.39,20.99-51,22.51-3.65,.29-7.32,.23-10.99,.23h-70.99c-2.98,0-5.99-.08-8.97-.29-1.65-.13-2.8-2.46-1.94-3.82,.71-1.11,1.48-2.21,2.42-3.13,10.97-10.7,22.05-21.32,32.96-32.06,3.55-3.5,7.53-5.09,12.54-5.01,11.99,.21,23.99,.19,36,.17,4.32,0,8.62-.19,12.87-1.34,15.87-4.32,25.6-15.75,26.91-32.1,.23-2.98,.19-5.99,.17-8.99-.19-30-.38-59.99-.63-89.99-.1-12.64-1.73-14.23-14.58-14.29-30-.13-59.99-.21-89.99-.25-3.65,0-7.34,.08-10.97,.48-14.75,1.65-25.99,11.43-29.68,25.8-1.17,4.53-1.88,9.12-1.79,13.83,.21,10.99,.04,22.01,.48,32.98,.27,6.78-1.5,12.08-6.65,16.86-9.53,8.82-18.46,18.29-27.7,27.43-2.32,2.29-4.42,4.92-7.47,6.22h-.04Z"/>
    <path class="cls-2" d="M246.42,94.87c1.69,.98,1.31,2.46,1.34,3.71,.21,22.34,.42,44.68,.52,67.02,.04,9.01-.48,17.98-1.4,26.95-2.94,28.85-18.59,48.5-43.95,61.12-10.01,4.99-20.82,7.16-31.9,7.36-35.34,.71-70.7,.44-106.03-.29-6.32-.13-12.64-.81-18.67-3.02-17.46-6.4-27.83-18.88-31.42-37.01-.77-3.9-.98-7.95-1.11-11.93-1.08-35-1.38-70.03-.83-105.03,.54-36.19,25.62-66.71,60.87-74.85,7.8-1.79,15.79-2.54,23.8-2.8,27.35-.83,54.67,.44,82,1.04,.58,0,1.15,.56,1.71,.86,.06,1.9-1.44,2.84-2.54,3.94-11.1,11.06-22.32,22.01-33.29,33.21-3.3,3.36-6.84,4.78-11.51,4.67-11.99-.25-24.01-.15-36-.17-3.67,0-7.28,.23-10.93,.9-19.78,3.69-30.33,18.84-30.56,36.59-.13,9.01-.06,18-.02,27.01,.08,22.34,.19,44.68,.35,67.02,.02,2.98,.23,5.99,.69,8.95,.56,3.67,2.88,5.97,6.57,6.55,1.96,.31,3.98,.42,5.97,.44,31.33,.21,62.69,.42,94.02,.5,3.96,0,7.99-.44,11.91-1.17,12.93-2.42,21.55-10.26,25.91-22.42,2.46-6.88,3.4-14.02,1.9-21.59-3.9-19.5,.75-37.01,13.87-52.13,7.91-9.1,16.81-17.11,26.37-24.43,.71-.54,1.69-.73,2.4-1.02h-.02Z"/>
  </g>
  <path class="cls-1" d="M668.56,271.72c-11.62,.08-21.1-9.25-21.15-20.82-.05-11.52,9.49-21.15,21-20.99,11.91,.16,20.74,9.24,20.86,20.61,.14,13.25-10.66,21.28-20.72,21.21h.01Zm-2.58-9.89c2.46-6.63,4.8-12.84,7.05-19.09,.22-.61,.09-1.64-.31-2.11-.39-.45-1.33-.41-1.96-.56-2.41,4.86-6.84,17.31-7.43,20.86,.69,.23,1.41,.48,2.66,.9h0Zm10.36-5.22c1.66-.75,2.83-1.25,3.98-1.78,1.74-.8,3.51-1.54,5.19-2.45,1.55-.84,1.55-3.03-.02-3.85-2.93-1.52-5.91-2.98-9.31-4.13-.43,1.07-.75,1.87-1.1,2.76,2.17,1.06,4.1,2.01,6.54,3.21-2.51,1.36-4.54,2.46-6.72,3.64,.52,.94,.88,1.6,1.44,2.61h0Zm-21.29-6.26c2.72-1.34,4.67-2.29,6.89-3.39-.69-1.05-1.16-1.77-1.73-2.63-2.97,1.36-5.71,2.62-8.47,3.87-1.65,.75-1.93,1.95-1.14,3.84,2.99,1.53,6.23,3.14,9.67,4.35,.44-.52,.82-.83,1.01-1.23,.18-.39,.16-.87,.26-1.44-1.99-1.03-3.93-2.03-6.5-3.37h0Z"/>
  <path class="cls-1" d="M847.9,272.63h-6.25c.08-1.42,.21-2.63,.19-3.84-.07-5.69-4.16-10.73-9.47-11.74-5.92-1.13-11.44,1.8-13.55,7.32-.5,1.31-.65,2.78-.8,4.2-.13,1.23-.03,2.49-.03,3.88-2.23,.56-4.23,.56-6.19,.07-2.11-6.76,.41-14.14,6.32-18.79,6.17-4.85,14.89-5.37,21.6-1.29,6.98,4.24,9.78,10.94,8.16,20.2h.02Z"/>
  <path class="cls-1" d="M811.69,230.36h6.43c.5,.76,1.07,1.69,1.69,2.59,5.13,7.46,14.94,7.5,20.1,.07,.54-.78,.97-1.65,1.54-2.63,1.03-.08,2.13-.21,3.22-.22,1.09-.01,2.19,.1,3.46,.16-.22,4.33-2.44,7.39-5.22,10.06-3.47,3.33-7.67,5.09-12.53,5.18-9.45,.18-17.58-6.34-18.7-15.21h.01Z"/>
</svg>