<?xml version="1.0" encoding="UTF-8"?>
<svg id="Layer_1" data-name="Layer 1" xmlns="http://www.w3.org/2000/svg" viewBox="0 0 829.39 282.26">
  <defs>
    <style>
      .cls-1 {
        fill: #fff;
      }

      .cls-2 {
        fill: #a54fbe;
      }

      .cls-3 {
        fill: #294df0;
      }
    </style>
  </defs>
  <g>
    <polygon class="cls-1" points="429.9 21.48 382.37 21.48 323.02 85.16 323.02 21.48 280.32 21.48 280.32 174.78 323.02 174.78 323.02 136.37 339.12 119.12 383.03 174.78 433.4 174.78 367.62 89.4 429.9 21.48"/>
    <polygon class="cls-1" points="604.66 48.85 604.66 21.48 472.6 21.48 472.6 55.86 547.79 55.86 470.85 147.4 470.85 174.78 607.94 174.78 607.94 140.39 527.53 140.39 604.66 48.85"/>
    <polygon class="cls-1" points="763.65 21.48 763.65 103.12 696.19 21.48 660.5 21.48 660.5 174.78 702.76 174.78 702.76 93.08 770.44 174.78 806.13 174.78 806.13 21.48 763.65 21.48"/>
  </g>
  <g>
    <polygon class="cls-3" points="275.61 224.81 288.77 224.81 288.77 258.05 300.89 258.05 300.89 224.81 313.99 224.81 313.99 215.2 275.61 215.2 275.61 224.81"/>
    <polygon class="cls-3" points="330.51 240.79 349.55 240.79 349.55 231.79 330.51 231.79 330.51 224.63 352.12 224.63 352.12 215.2 318.58 215.2 318.58 258.05 352.92 258.05 352.92 248.62 330.51 248.62 330.51 240.79"/>
    <path class="cls-3" d="M372.72,227.72c1.04-1.08,2.29-1.91,3.76-2.48,1.47-.57,3.08-.86,4.84-.86,2,0,3.83,.43,5.51,1.29,1.67,.86,3.2,2.1,4.59,3.73l7.71-6.98c-2.08-2.65-4.68-4.66-7.8-6.03s-6.66-2.05-10.62-2.05c-3.39,0-6.51,.54-9.36,1.62-2.86,1.08-5.35,2.61-7.47,4.59-2.12,1.98-3.77,4.34-4.96,7.07-1.18,2.73-1.78,5.73-1.78,9s.59,6.26,1.78,9c1.18,2.73,2.83,5.09,4.96,7.07,2.12,1.98,4.61,3.51,7.47,4.59,2.86,1.08,5.98,1.62,9.36,1.62,3.96,0,7.5-.69,10.62-2.08,3.12-1.39,5.72-3.41,7.8-6.06l-7.71-6.98c-1.39,1.67-2.92,2.94-4.59,3.79-1.67,.86-3.51,1.29-5.51,1.29-1.75,0-3.37-.29-4.84-.86-1.47-.57-2.72-1.4-3.76-2.48-1.04-1.08-1.86-2.38-2.45-3.89-.59-1.51-.89-3.18-.89-5.02s.3-3.51,.89-5.02c.59-1.51,1.41-2.8,2.45-3.89Z"/>
    <polygon class="cls-3" points="432.67 231.3 416.2 231.3 416.2 215.2 404.08 215.2 404.08 258.05 416.2 258.05 416.2 241.34 432.67 241.34 432.67 258.05 444.79 258.05 444.79 215.2 432.67 215.2 432.67 231.3"/>
    <polygon class="cls-2" points="500.51 232.16 484.05 232.16 484.05 216.06 471.93 216.06 471.93 258.91 484.05 258.91 484.05 242.2 500.51 242.2 500.51 258.91 512.63 258.91 512.63 216.06 500.51 216.06 500.51 232.16"/>
    <path class="cls-2" d="M609.31,240.3c1.53-2.33,2.29-5.14,2.29-8.45,0-4.9-1.67-8.75-5.02-11.57-3.35-2.82-8.16-4.22-14.45-4.22h-19.1v42.84h12.12v-11.38h6.55l7.77,11.38h12.97l-9.25-13.48c2.62-1.23,4.66-2.94,6.1-5.13Zm-11.78-13.01c1.26,1.12,1.9,2.64,1.9,4.56s-.63,3.55-1.9,4.65c-1.27,1.1-3.16,1.65-5.69,1.65h-6.67v-12.55h6.67c2.53,0,4.43,.56,5.69,1.68Z"/>
    <rect class="cls-2" x="618.33" y="216.06" width="12.12" height="42.84"/>
    <polygon class="cls-2" points="674.34 223.71 674.34 216.06 637.43 216.06 637.43 225.67 658.44 225.67 636.94 251.26 636.94 258.91 675.25 258.91 675.25 249.3 652.78 249.3 674.34 223.71"/>
    <polygon class="cls-2" points="760.64 238.88 741.78 216.06 731.81 216.06 731.81 258.91 743.62 258.91 743.62 236.07 762.53 258.91 772.51 258.91 772.51 216.06 760.64 216.06 760.64 238.88"/>
    <path class="cls-2" d="M813.82,240.33c-.9-1.49-2.07-2.69-3.52-3.61-1.45-.92-3.03-1.65-4.74-2.2-1.71-.55-3.44-1.01-5.17-1.38s-3.32-.72-4.74-1.07-2.59-.8-3.49-1.35c-.9-.55-1.35-1.32-1.35-2.29,0-.65,.22-1.26,.67-1.84,.45-.57,1.18-1.04,2.2-1.41s2.37-.55,4.04-.55c1.88,0,3.81,.27,5.81,.8,2,.53,4.02,1.37,6.06,2.51l3.67-8.94c-2.08-1.26-4.48-2.21-7.19-2.85-2.71-.63-5.48-.95-8.29-.95-4.2,0-7.71,.63-10.53,1.9s-4.92,2.94-6.3,5.02-2.08,4.39-2.08,6.92c0,2.29,.44,4.18,1.31,5.69,.88,1.51,2.03,2.73,3.46,3.67s3.02,1.69,4.77,2.26,3.48,1.03,5.17,1.38,3.27,.71,4.71,1.1c1.45,.39,2.62,.86,3.52,1.41,.9,.55,1.35,1.3,1.35,2.23,0,.73-.24,1.37-.71,1.9-.47,.53-1.2,.94-2.2,1.22-1,.29-2.36,.43-4.07,.43-2.49,0-4.99-.4-7.5-1.19-2.51-.79-4.72-1.81-6.64-3.03l-3.98,9c2,1.35,4.62,2.46,7.87,3.34s6.64,1.32,10.19,1.32c4.24,0,7.77-.63,10.59-1.9,2.82-1.26,4.93-2.95,6.34-5.05s2.11-4.4,2.11-6.89c0-2.24-.45-4.11-1.35-5.6Z"/>
  </g>
  <rect class="cls-1" x="230.95" y="13.77" width="18.42" height="260.73"/>
  <g>
    <path class="cls-2" d="M78.65,168.66c-1.15-1.13-1.16-2.41-1.16-3.69-.03-12.62-.07-25.25-.06-37.87,0-4.34,.7-8.62,2.07-12.72,4.87-14.54,15.13-22.89,30.06-25.62,3.29-.6,6.65-.79,10.02-.75,14.86,.21,29.71,.33,44.57,.49,2.72,.03,5.4,.17,8.07,.89,9.85,2.67,15.41,9.18,17.24,19.05,.38,2.03,.56,4.13,.58,6.2,.17,15.98,.43,31.96,.34,47.93-.06,10.65-3.8,20-11.51,27.55-6.79,6.65-15.05,10.06-24.45,10.79-1.75,.14-3.51,.11-5.27,.11-11.34,0-22.69,0-34.03,0-1.43,0-2.87-.04-4.3-.14-.79-.06-1.34-1.18-.93-1.83,.34-.53,.71-1.06,1.16-1.5,5.26-5.13,10.57-10.22,15.8-15.37,1.7-1.68,3.61-2.44,6.01-2.4,5.75,.1,11.5,.09,17.26,.08,2.07,0,4.13-.09,6.17-.64,7.61-2.07,12.27-7.55,12.9-15.39,.11-1.43,.09-2.87,.08-4.31-.09-14.38-.18-28.76-.3-43.14-.05-6.06-.83-6.82-6.99-6.85-14.38-.06-28.76-.1-43.14-.12-1.75,0-3.52,.04-5.26,.23-7.07,.79-12.46,5.48-14.23,12.37-.56,2.17-.9,4.37-.86,6.63,.1,5.27,.02,10.55,.23,15.81,.13,3.25-.72,5.79-3.19,8.08-4.57,4.23-8.85,8.77-13.28,13.15-1.11,1.1-2.12,2.36-3.58,2.98Z"/>
    <path class="cls-3" d="M125.09,117.97c.81,.47,.63,1.18,.64,1.78,.1,10.71,.2,21.42,.25,32.13,.02,4.32-.23,8.62-.67,12.92-1.41,13.83-8.91,23.25-21.07,29.3-4.8,2.39-9.98,3.43-15.29,3.53-16.94,.34-33.89,.21-50.83-.14-3.03-.06-6.06-.39-8.95-1.45-8.37-3.07-13.34-9.05-15.06-17.74-.37-1.87-.47-3.81-.53-5.72-.52-16.78-.66-33.57-.4-50.35,.26-17.35,12.28-31.98,29.18-35.88,3.74-.86,7.57-1.22,11.41-1.34,13.11-.4,26.21,.21,39.31,.5,.28,0,.55,.27,.82,.41,.03,.91-.69,1.36-1.22,1.89-5.32,5.3-10.7,10.55-15.96,15.92-1.58,1.61-3.28,2.29-5.52,2.24-5.75-.12-11.51-.07-17.26-.08-1.76,0-3.49,.11-5.24,.43-9.48,1.77-14.54,9.03-14.65,17.54-.06,4.32-.03,8.63-.01,12.95,.04,10.71,.09,21.42,.17,32.13,.01,1.43,.11,2.87,.33,4.29,.27,1.76,1.38,2.86,3.15,3.14,.94,.15,1.91,.2,2.86,.21,15.02,.1,30.05,.2,45.07,.24,1.9,0,3.83-.21,5.71-.56,6.2-1.16,10.33-4.92,12.42-10.75,1.18-3.3,1.63-6.72,.91-10.35-1.87-9.35,.36-17.74,6.65-24.99,3.79-4.36,8.06-8.2,12.64-11.71,.34-.26,.81-.35,1.15-.49Z"/>
  </g>
  <path class="cls-2" d="M542.67,257.68c-11.62,.08-21.1-9.25-21.15-20.82-.05-11.52,9.49-21.15,21-20.99,11.91,.16,20.74,9.24,20.86,20.61,.14,13.25-10.66,21.28-20.72,21.21Zm-2.58-9.88c2.46-6.63,4.8-12.84,7.05-19.09,.22-.61,.09-1.64-.31-2.11-.39-.45-1.33-.41-1.96-.56-2.41,4.86-6.84,17.31-7.43,20.86,.69,.23,1.41,.48,2.66,.9Zm10.36-5.22c1.66-.75,2.83-1.25,3.98-1.78,1.74-.8,3.51-1.54,5.19-2.45,1.55-.84,1.55-3.03-.02-3.85-2.93-1.52-5.91-2.98-9.31-4.13-.43,1.07-.75,1.87-1.1,2.76,2.17,1.06,4.1,2.01,6.54,3.21-2.51,1.36-4.54,2.46-6.72,3.64,.52,.94,.88,1.6,1.44,2.61Zm-21.29-6.25c2.72-1.34,4.67-2.29,6.89-3.39-.69-1.05-1.16-1.77-1.73-2.63-2.97,1.36-5.71,2.62-8.47,3.87-1.65,.75-1.93,1.95-1.14,3.84,2.99,1.53,6.23,3.14,9.67,4.35,.44-.52,.82-.83,1.01-1.23,.18-.39,.16-.87,.26-1.44-1.99-1.03-3.93-2.03-6.5-3.37Z"/>
  <path class="cls-2" d="M722.01,258.6h-6.25c.08-1.42,.21-2.63,.19-3.84-.07-5.69-4.16-10.73-9.47-11.74-5.92-1.13-11.44,1.8-13.55,7.32-.5,1.31-.65,2.78-.8,4.2-.13,1.23-.03,2.49-.03,3.88-2.23,.56-4.23,.56-6.19,.07-2.11-6.76,.41-14.14,6.32-18.79,6.17-4.85,14.89-5.37,21.6-1.29,6.98,4.24,9.78,10.94,8.16,20.2Z"/>
  <path class="cls-2" d="M685.8,216.32h6.43c.5,.76,1.07,1.69,1.69,2.59,5.13,7.46,14.94,7.5,20.1,.07,.54-.78,.97-1.65,1.54-2.63,1.03-.08,2.13-.21,3.22-.22,1.09-.01,2.19,.1,3.46,.16-.22,4.33-2.44,7.39-5.22,10.06-3.47,3.33-7.67,5.09-12.53,5.18-9.45,.18-17.58-6.34-18.7-15.21Z"/>
</svg>